  0
SECTION
  2
HEADER
  9
$ACADVER
  1
AC1014
  9
$HANDSEED
  5
FFFF
  9
$MEASUREMENT
 70
     1
  0
ENDSEC
  0
SECTION
  2
TABLES
  0
TABLE
  2
VPORT
  5
8
330
0
100
AcDbSymbolTable
 70
     4
  0
VPORT
  5
2E
330
8
100
AcDbSymbolTableRecord
100
AcDbViewportTableRecord
  2
*ACTIVE
 70
     0
 10
0.0
 20
0.0
 11
1.0
 21
1.0
 12
210.0
 22
148.5
 13
0.0
 23
0.0
 14
10.0
 24
10.0
 15
10.0
 25
10.0
 16
0.0
 26
0.0
 36
1.0
 17
0.0
 27
0.0
 37
0.0
 40
341.0
 41
1.24
 42
50.0
 43
0.0
 44
0.0
 50
0.0
 51
0.0
 71
     0
 72
   100
 73
     1
 74
     3
 75
     0
 76
     0
 77
     0
 78
     0
  0
ENDTAB
  0
TABLE
  2
LTYPE
  5
5
330
0
100
AcDbSymbolTable
 70
     1
  0
LTYPE
  5
14
330
5
100
AcDbSymbolTableRecord
100
AcDbLinetypeTableRecord
  2
BYBLOCK
 70
     0
  3

 72
    65
 73
     0
 40
0.0
  0
LTYPE
  5
15
330
5
100
AcDbSymbolTableRecord
100
AcDbLinetypeTableRecord
  2
BYLAYER
 70
     0
  3

 72
    65
 73
     0
 40
0.0
  0
LTYPE
  5
16
330
5
100
AcDbSymbolTableRecord
100
AcDbLinetypeTableRecord
  2
CONTINUOUS
 70
     0
  3
Solid line
 72
    65
 73
     0
 40
0.0
  0
ENDTAB
  0
TABLE
  2
LAYER
  5
2
100
AcDbSymbolTable
 70
2
  0
LAYER
  5
50
100
AcDbSymbolTableRecord
100
AcDbLayerTableRecord
  2
0
 70
0
  6
CONTINUOUS
  0
LAYER
  5
51
100
AcDbSymbolTableRecord
100
AcDbLayerTableRecord
  2
Layer_1
 70
0
  6
CONTINUOUS
  0
ENDTAB
  0
TABLE
  2
STYLE
  5
3
330
0
100
AcDbSymbolTable
 70
     1
  0
STYLE
  5
11
330
3
100
AcDbSymbolTableRecord
100
AcDbTextStyleTableRecord
  2
STANDARD
 70
     0
 40
0.0
 41
1.0
 50
0.0
 71
     0
 42
2.5
  3
txt
  4

  0
ENDTAB
  0
TABLE
  2
VIEW
  5
6
330
0
100
AcDbSymbolTable
 70
     0
  0
ENDTAB
  0
TABLE
  2
UCS
  5
7
330
0
100
AcDbSymbolTable
 70
     0
  0
ENDTAB
  0
TABLE
  2
APPID
  5
9
330
0
100
AcDbSymbolTable
 70
     2
  0
APPID
  5
12
330
9
100
AcDbSymbolTableRecord
100
AcDbRegAppTableRecord
  2
ACAD
 70
     0
  0
ENDTAB
  0
TABLE
  2
DIMSTYLE
  5
A
330
0
100
AcDbSymbolTable
 70
     1
  0
DIMSTYLE
105
27
330
A
100
AcDbSymbolTableRecord
100
AcDbDimStyleTableRecord
  2
ISO-25
 70
     0
  3

  4

  5

  6

  7

 40
1.0
 41
2.5
 42
0.625
 43
3.75
 44
1.25
 45
0.0
 46
0.0
 47
0.0
 48
0.0
140
2.5
141
2.5
142
0.0
143
0.03937007874016
144
1.0
145
0.0
146
1.0
147
0.625
 71
     0
 72
     0
 73
     0
 74
     0
 75
     0
 76
     0
 77
     1
 78
     8
170
     0
171
     3
172
     1
173
     0
174
     0
175
     0
176
     0
177
     0
178
     0
270
     2
271
     2
272
     2
273
     2
274
     3
340
11
275
     0
280
     0
281
     0
282
     0
283
     0
284
     8
285
     0
286
     0
287
     3
288
     0
  0
ENDTAB
  0
TABLE
  2
BLOCK_RECORD
  5
1
330
0
100
AcDbSymbolTable
 70
     1
  0
BLOCK_RECORD
  5
1F
330
1
100
AcDbSymbolTableRecord
100
AcDbBlockTableRecord
  2
*MODEL_SPACE
  0
BLOCK_RECORD
  5
1B
330
1
100
AcDbSymbolTableRecord
100
AcDbBlockTableRecord
  2
*PAPER_SPACE
  0
ENDTAB
  0
ENDSEC
  0
SECTION
  2
BLOCKS
  0
BLOCK
  5
20
330
1F
100
AcDbEntity
  8
0
100
AcDbBlockBegin
  2
*MODEL_SPACE
 70
     0
 10
0.0
 20
0.0
 30
0.0
  3
*MODEL_SPACE
  1

  0
ENDBLK
  5
21
330
1F
100
AcDbEntity
  8
0
100
AcDbBlockEnd
  0
BLOCK
  5
1C
330
1B
100
AcDbEntity
 67
     1
  8
0
100
AcDbBlockBegin
  2
*PAPER_SPACE
  1

  0
ENDBLK
  5
1D
330
1B
100
AcDbEntity
 67
     1
  8
0
100
AcDbBlockEnd
  0
ENDSEC
  0
SECTION
  2
ENTITIES
  0
LWPOLYLINE
  5
100
100
AcDbEntity
  8
Layer_1
 62
7
100
AcDbPolyline
 90
104
 70
1
 10
225.506548
 20
4.682353
 30
0.0
 10
216.996197
 20
7.588687
 30
0.0
 10
209.398805
 20
12.316592
 30
0.0
 10
202.995794
 20
18.643805
 30
0.0
 10
198.068587
 20
26.348145
 30
0.0
 10
196.458797
 20
29.782800
 30
0.0
 10
195.579187
 20
32.381121
 30
0.0
 10
195.214127
 20
35.056687
 30
0.0
 10
195.147995
 20
38.723131
 30
0.0
 10
195.227422
 20
42.009364
 30
0.0
 10
195.485488
 20
44.445175
 30
0.0
 10
195.981211
 20
46.372280
 30
0.0
 10
196.773610
 20
48.132397
 30
0.0
 10
201.903559
 20
54.511058
 30
0.0
 10
208.980561
 20
59.207357
 30
0.0
 10
216.858960
 20
61.672706
 30
0.0
 10
224.393088
 20
61.358457
 30
0.0
 10
230.927808
 20
58.261890
 30
0.0
 10
235.915359
 20
53.345055
 30
0.0
 10
238.787266
 20
47.394028
 30
0.0
 10
238.975061
 20
41.194885
 30
0.0
 10
237.814228
 20
38.708901
 30
0.0
 10
235.618274
 20
36.045865
 30
0.0
 10
232.819690
 20
33.644353
 30
0.0
 10
229.850980
 20
31.942942
 30
0.0
 10
226.509250
 20
31.516101
 30
0.0
 10
223.415904
 20
32.695313
 30
0.0
 10
221.141489
 20
35.099688
 30
0.0
 10
220.256561
 20
38.348306
 30
0.0
 10
220.651571
 20
40.767534
 30
0.0
 10
221.809921
 20
42.542306
 30
0.0
 10
223.691590
 20
43.634835
 30
0.0
 10
226.256562
 20
44.007392
 30
0.0
 10
228.176765
 20
44.138069
 30
0.0
 10
229.057977
 20
44.670387
 30
0.0
 10
229.004062
 20
45.814876
 30
0.0
 10
228.118867
 20
47.781978
 30
0.0
 10
226.067717
 20
50.304614
 30
0.0
 10
223.225410
 20
51.777921
 30
0.0
 10
219.873858
 20
52.119269
 30
0.0
 10
216.294973
 20
51.246085
 30
0.0
 10
209.652650
 20
46.369956
 30
0.0
 10
206.411797
 20
39.423317
 30
0.0
 10
206.789502
 20
31.531294
 30
0.0
 10
211.002854
 20
23.818989
 30
0.0
 10
214.108747
 20
20.750372
 30
0.0
 10
217.491715
 20
18.775049
 30
0.0
 10
221.736251
 20
17.655874
 30
0.0
 10
227.426848
 20
17.155729
 30
0.0
 10
236.184820
 20
17.484236
 30
0.0
 10
243.947086
 20
19.278935
 30
0.0
 10
250.920848
 20
22.611912
 30
0.0
 10
257.313300
 20
27.555222
 30
0.0
 10
262.541803
 20
33.657052
 30
0.0
 10
266.174019
 20
40.784343
 30
0.0
 10
268.292682
 20
49.160126
 30
0.0
 10
268.980517
 20
59.007430
 30
0.0
 10
266.830954
 20
75.012973
 30
0.0
 10
260.063184
 20
87.353717
 30
0.0
 10
248.198570
 20
96.583776
 30
0.0
 10
230.758492
 20
103.257213
 30
0.0
 10
224.164570
 20
105.292431
 30
0.0
 10
218.755644
 20
107.534721
 30
0.0
 10
214.037493
 20
110.224743
 30
0.0
 10
209.515895
 20
113.603216
 30
0.0
 10
200.499480
 20
123.767320
 30
0.0
 10
196.395262
 20
134.741735
 30
0.0
 10
197.326508
 20
145.675389
 30
0.0
 10
203.416483
 20
155.717150
 30
0.0
 10
206.497318
 20
158.604860
 30
0.0
 10
210.040926
 20
161.396561
 30
0.0
 10
213.078129
 20
163.387814
 30
0.0
 10
214.639753
 20
163.874239
 30
0.0
 10
214.701917
 20
163.514183
 30
0.0
 10
214.630115
 20
162.775020
 30
0.0
 10
214.440420
 20
161.764441
 30
0.0
 10
214.148914
 20
160.590246
 30
0.0
 10
213.861606
 20
159.068721
 30
0.0
 10
213.683306
 20
157.112504
 30
0.0
 10
213.628343
 20
154.973735
 30
0.0
 10
213.711114
 20
152.904643
 30
0.0
 10
216.375636
 20
143.522929
 30
0.0
 10
222.851336
 20
134.738306
 30
0.0
 10
233.195369
 20
126.492831
 30
0.0
 10
247.464893
 20
118.728709
 30
0.0
 10
250.656809
 20
117.154857
 30
0.0
 10
254.102289
 20
115.304145
 30
0.0
 10
257.386873
 20
113.407370
 30
0.0
 10
260.096094
 20
111.695329
 30
0.0
 10
265.435084
 20
107.528910
 30
0.0
 10
270.970549
 20
102.284135
 30
0.0
 10
275.964840
 20
96.718309
 30
0.0
 10
279.680312
 20
91.588734
 30
0.0
 10
284.077817
 20
82.896803
 30
0.0
 10
287.146094
 20
73.610050
 30
0.0
 10
288.806431
 20
64.042328
 30
0.0
 10
288.980195
 20
54.507430
 30
0.0
 10
287.660639
 20
44.514652
 30
0.0
 10
284.951568
 20
35.887975
 30
0.0
 10
280.673850
 20
28.209260
 30
0.0
 10
274.648249
 20
21.060312
 30
0.0
 10
263.555504
 20
12.149575
 30
0.0
 10
251.256841
 20
6.312784
 30
0.0
 10
238.368481
 20
3.755254
 30
0.0
  0
LWPOLYLINE
  5
101
100
AcDbEntity
  8
Layer_1
 62
7
100
AcDbPolyline
 90
132
 70
1
 10
25.471079
 20
10.551090
 30
0.0
 10
19.615960
 20
13.291370
 30
0.0
 10
14.095196
 20
17.394860
 30
0.0
 10
9.395491
 20
22.426469
 30
0.0
 10
6.003549
 20
27.951250
 30
0.0
 10
4.552539
 20
32.433307
 30
0.0
 10
3.732996
 20
37.811764
 30
0.0
 10
3.600816
 20
43.440123
 30
0.0
 10
4.211895
 20
48.672000
 30
0.0
 10
6.681807
 20
56.065323
 30
0.0
 10
10.716197
 20
62.851294
 30
0.0
 10
15.948434
 20
68.536488
 30
0.0
 10
22.011883
 20
72.627506
 30
0.0
 10
29.388014
 20
74.952198
 30
0.0
 10
37.828330
 20
75.384822
 30
0.0
 10
46.794575
 20
73.956189
 30
0.0
 10
55.748484
 20
70.697112
 30
0.0
 10
60.531560
 20
68.212261
 30
0.0
 10
65.736539
 20
64.968860
 30
0.0
 10
72.379837
 20
60.287074
 30
0.0
 10
81.477871
 20
53.486986
 30
0.0
 10
86.105841
 20
50.101313
 30
0.0
 10
90.688802
 20
46.962340
 30
0.0
 10
94.697643
 20
44.419918
 30
0.0
 10
97.603246
 20
42.823956
 30
0.0
 10
110.604107
 20
38.439383
 30
0.0
 10
124.327302
 20
36.650324
 30
0.0
 10
137.666280
 20
37.495389
 30
0.0
 10
149.514481
 20
41.013156
 30
0.0
 10
158.327224
 20
47.008148
 30
0.0
 10
164.969692
 20
55.904542
 30
0.0
 10
169.321825
 20
67.478825
 30
0.0
 10
171.263557
 20
81.507402
 30
0.0
 10
171.293605
 20
89.046879
 30
0.0
 10
170.528599
 20
96.656088
 30
0.0
 10
168.776570
 20
105.597213
 30
0.0
 10
165.845566
 20
117.132406
 30
0.0
 10
164.474360
 20
122.409439
 30
0.0
 10
163.290085
 20
127.352381
 30
0.0
 10
162.419296
 20
131.407143
 30
0.0
 10
161.988557
 20
134.019609
 30
0.0
 10
162.016620
 20
138.104277
 30
0.0
 10
162.752814
 20
142.626926
 30
0.0
 10
164.080049
 20
147.078425
 30
0.0
 10
165.881251
 20
150.949616
 30
0.0
 10
169.999991
 20
156.343124
 30
0.0
 10
175.262384
 20
160.789833
 30
0.0
 10
181.125862
 20
163.920246
 30
0.0
 10
187.047862
 20
165.364866
 30
0.0
 10
188.074208
 20
165.449906
 30
0.0
 10
189.100554
 20
165.534945
 30
0.0
 10
190.126897
 20
165.619984
 30
0.0
 10
191.153243
 20
165.705024
 30
0.0
 10
190.484045
 20
164.695918
 30
0.0
 10
189.814851
 20
163.686784
 30
0.0
 10
189.145653
 20
162.677679
 30
0.0
 10
188.476456
 20
161.668573
 30
0.0
 10
185.501594
 20
156.591950
 30
0.0
 10
183.661685
 20
151.691187
 30
0.0
 10
182.723083
 20
146.082472
 30
0.0
 10
182.452148
 20
138.882104
 30
0.0
 10
182.522985
 20
133.092000
 30
0.0
 10
182.976506
 20
128.455937
 30
0.0
 10
184.135947
 20
122.939206
 30
0.0
 10
186.324546
 20
114.507099
 30
0.0
 10
189.383392
 20
102.721691
 30
0.0
 10
191.317527
 20
94.336243
 30
0.0
 10
192.474097
 20
87.658951
 30
0.0
 10
193.200240
 20
80.997987
 30
0.0
 10
192.979903
 20
64.050009
 30
0.0
 10
189.084045
 20
49.626142
 30
0.0
 10
181.422069
 20
37.518435
 30
0.0
 10
169.903384
 20
27.518882
 30
0.0
 10
151.473986
 20
17.651792
 30
0.0
 10
133.331687
 20
12.722003
 30
0.0
 10
115.969771
 20
12.796838
 30
0.0
 10
99.881516
 20
17.943959
 30
0.0
 10
94.511265
 20
20.944403
 30
0.0
 10
89.243805
 20
24.674740
 30
0.0
 10
83.039449
 20
29.951291
 30
0.0
 10
74.858520
 20
37.590321
 30
0.0
 10
69.737874
 20
42.384926
 30
0.0
 10
64.868120
 20
46.770605
 30
0.0
 10
60.799698
 20
50.262265
 30
0.0
 10
58.083058
 20
52.374784
 30
0.0
 10
53.638909
 20
55.027276
 30
0.0
 10
49.320134
 20
56.897943
 30
0.0
 10
45.282141
 20
57.932844
 30
0.0
 10
41.680333
 20
58.077978
 30
0.0
 10
36.432936
 20
56.743909
 30
0.0
 10
31.362651
 20
53.958331
 30
0.0
 10
26.957801
 20
50.065455
 30
0.0
 10
23.706709
 20
45.409465
 30
0.0
 10
22.486653
 20
41.722724
 30
0.0
 10
22.306118
 20
37.795833
 30
0.0
 10
23.131336
 20
34.031622
 30
0.0
 10
24.928542
 20
30.832980
 30
0.0
 10
26.966564
 20
28.657899
 30
0.0
 10
28.979124
 20
27.081269
 30
0.0
 10
30.779251
 20
26.222485
 30
0.0
 10
32.179977
 20
26.199808
 30
0.0
 10
32.732603
 20
26.565846
 30
0.0
 10
32.917478
 20
27.293613
 30
0.0
 10
32.734956
 20
28.675474
 30
0.0
 10
32.185346
 20
31.003767
 30
0.0
 10
31.624908
 20
35.765461
 30
0.0
 10
32.800167
 20
39.133134
 30
0.0
 10
35.819694
 20
41.248687
 30
0.0
 10
40.792059
 20
42.254050
 30
0.0
 10
43.103103
 20
42.362617
 30
0.0
 10
44.936047
 20
42.207279
 30
0.0
 10
46.614603
 20
41.730123
 30
0.0
 10
48.462468
 20
40.872728
 30
0.0
 10
51.458241
 20
38.960901
 30
0.0
 10
53.436980
 20
36.751068
 30
0.0
 10
54.591967
 20
33.933118
 30
0.0
 10
55.116490
 20
30.196913
 30
0.0
 10
55.165048
 20
28.124079
 30
0.0
 10
55.071674
 20
26.023153
 30
0.0
 10
54.855419
 20
24.139531
 30
0.0
 10
54.535354
 20
22.718608
 30
0.0
 10
52.981548
 20
19.811962
 30
0.0
 10
50.370891
 20
16.734898
 30
0.0
 10
47.126871
 20
13.914000
 30
0.0
 10
43.672983
 20
11.775940
 30
0.0
 10
39.592939
 20
10.440283
 30
0.0
 10
34.670012
 20
9.755008
 30
0.0
 10
29.698052
 20
9.774850
 30
0.0
 10
25.470912
 20
10.550778
 30
0.0
 10
25.470943
 20
10.550778
 30
0.0
 10
25.470974
 20
10.550778
 30
0.0
 10
25.471005
 20
10.550778
 30
0.0
  0
LWPOLYLINE
  5
102
100
AcDbEntity
  8
Layer_1
 62
7
100
AcDbPolyline
 90
92
 70
1
 10
107.255886
 20
47.645688
 30
0.0
 10
102.102069
 20
50.100236
 30
0.0
 10
97.862374
 20
53.617635
 30
0.0
 10
94.471186
 20
58.268126
 30
0.0
 10
91.862887
 20
64.121896
 30
0.0
 10
91.001803
 20
66.964904
 30
0.0
 10
90.472275
 20
69.769928
 30
0.0
 10
90.205223
 20
73.066054
 30
0.0
 10
90.131550
 20
77.382397
 30
0.0
 10
90.185494
 20
82.036772
 30
0.0
 10
90.461106
 20
85.007225
 30
0.0
 10
91.129017
 20
87.233556
 30
0.0
 10
92.359854
 20
89.655562
 30
0.0
 10
95.897826
 20
94.484665
 30
0.0
 10
100.571230
 20
98.249953
 30
0.0
 10
106.375720
 20
100.948762
 30
0.0
 10
113.306950
 20
102.578428
 30
0.0
 10
115.770801
 20
102.940441
 30
0.0
 10
118.543201
 20
103.351351
 30
0.0
 10
121.284592
 20
103.760674
 30
0.0
 10
123.655419
 20
104.117868
 30
0.0
 10
129.438541
 20
105.509962
 30
0.0
 10
134.901283
 20
107.883014
 30
0.0
 10
140.042024
 20
111.236145
 30
0.0
 10
144.859150
 20
115.568532
 30
0.0
 10
147.083856
 20
117.992806
 30
0.0
 10
149.243706
 20
120.556261
 30
0.0
 10
151.091872
 20
122.953408
 30
0.0
 10
152.381529
 20
124.878784
 30
0.0
 10
153.299546
 20
126.374400
 30
0.0
 10
154.135826
 20
127.601405
 30
0.0
 10
154.798081
 20
128.433033
 30
0.0
 10
155.194030
 20
128.742520
 30
0.0
 10
155.676892
 20
126.439852
 30
0.0
 10
155.721453
 20
121.050028
 30
0.0
 10
155.386508
 20
114.907776
 30
0.0
 10
154.730840
 20
110.347795
 30
0.0
 10
153.770272
 20
107.171433
 30
0.0
 10
152.703306
 20
104.695398
 30
0.0
 10
151.337157
 20
102.553852
 30
0.0
 10
149.479033
 20
100.380898
 30
0.0
 10
146.999636
 20
98.093934
 30
0.0
 10
144.015038
 20
96.540180
 30
0.0
 10
139.320164
 20
95.277770
 30
0.0
 10
131.709934
 20
93.864728
 30
0.0
 10
117.003866
 20
90.692079
 30
0.0
 10
108.091301
 20
86.797304
 30
0.0
 10
103.688243
 20
81.272098
 30
0.0
 10
102.510709
 20
73.208098
 30
0.0
 10
102.987896
 20
66.748422
 30
0.0
 10
104.476054
 20
61.769509
 30
0.0
 10
107.076651
 20
58.055698
 30
0.0
 10
110.891163
 20
55.391329
 30
0.0
 10
114.351259
 20
54.183402
 30
0.0
 10
118.164090
 20
53.668460
 30
0.0
 10
121.830375
 20
53.867452
 30
0.0
 10
124.850840
 20
54.801751
 30
0.0
 10
127.181191
 20
56.396494
 30
0.0
 10
129.135461
 20
58.504110
 30
0.0
 10
130.582032
 20
60.948397
 30
0.0
 10
131.389279
 20
63.553153
 30
0.0
 10
131.585890
 20
66.096709
 30
0.0
 10
131.067748
 20
67.481235
 30
0.0
 10
129.766450
 20
67.769603
 30
0.0
 10
127.613588
 20
67.024743
 30
0.0
 10
125.427365
 20
66.099515
 30
0.0
 10
123.895644
 20
65.867074
 30
0.0
 10
122.635063
 20
66.363846
 30
0.0
 10
121.262258
 20
67.626057
 30
0.0
 10
119.936611
 20
69.897628
 30
0.0
 10
119.465833
 20
72.709427
 30
0.0
 10
119.855721
 20
75.649096
 30
0.0
 10
121.112079
 20
78.304280
 30
0.0
 10
124.372913
 20
81.120898
 30
0.0
 10
128.503094
 20
82.229584
 30
0.0
 10
132.838818
 20
81.593291
 30
0.0
 10
136.716293
 20
79.174998
 30
0.0
 10
138.599320
 20
76.758548
 30
0.0
 10
140.119903
 20
73.661669
 30
0.0
 10
141.136243
 20
70.248246
 30
0.0
 10
141.506535
 20
66.882161
 30
0.0
 10
141.123195
 20
63.582151
 30
0.0
 10
140.091089
 20
60.012765
 30
0.0
 10
138.587097
 20
56.657055
 30
0.0
 10
136.788092
 20
53.997959
 30
0.0
 10
131.100148
 20
49.840866
 30
0.0
 10
123.393146
 20
47.205213
 30
0.0
 10
115.000560
 20
46.377808
 30
0.0
 10
107.255871
 20
47.645461
 30
0.0
 10
107.255869
 20
47.645461
 30
0.0
 10
107.255866
 20
47.645461
 30
0.0
 10
107.255860
 20
47.645461
 30
0.0
  0
LWPOLYLINE
  5
103
100
AcDbEntity
  8
Layer_1
 62
7
100
AcDbPolyline
 90
100
 70
1
 10
53.482113
 20
88.649263
 30
0.0
 10
38.355177
 20
96.205238
 30
0.0
 10
28.947688
 20
108.624387
 30
0.0
 10
26.115084
 20
123.966567
 30
0.0
 10
30.712805
 20
140.291546
 30
0.0
 10
38.346982
 20
149.857427
 30
0.0
 10
48.846005
 20
156.391228
 30
0.0
 10
61.015598
 20
159.390709
 30
0.0
 10
73.661477
 20
158.353597
 30
0.0
 10
76.543444
 20
157.369294
 30
0.0
 10
81.085958
 20
155.542252
 30
0.0
 10
86.665654
 20
153.133257
 30
0.0
 10
92.659178
 20
150.403266
 30
0.0
 10
103.873056
 20
145.303625
 30
0.0
 10
111.920647
 20
142.067424
 30
0.0
 10
117.998994
 20
140.267877
 30
0.0
 10
123.305145
 20
139.478258
 30
0.0
 10
129.366391
 20
139.582290
 30
0.0
 10
134.648813
 20
141.682139
 30
0.0
 10
140.733802
 20
146.778860
 30
0.0
 10
149.202757
 20
155.873594
 30
0.0
 10
153.777677
 20
160.523008
 30
0.0
 10
157.982630
 20
163.756063
 30
0.0
 10
161.930687
 20
165.643824
 30
0.0
 10
165.734923
 20
166.257298
 30
0.0
 10
166.468388
 20
166.257298
 30
0.0
 10
167.201853
 20
166.257298
 30
0.0
 10
167.935317
 20
166.257298
 30
0.0
 10
168.668782
 20
166.257298
 30
0.0
 10
167.713980
 20
165.398854
 30
0.0
 10
166.759180
 20
164.540409
 30
0.0
 10
165.804378
 20
163.681965
 30
0.0
 10
164.849579
 20
162.823521
 30
0.0
 10
162.954686
 20
160.933606
 30
0.0
 10
161.286585
 20
158.847874
 30
0.0
 10
159.764627
 20
156.453109
 30
0.0
 10
158.308155
 20
153.636009
 30
0.0
 10
153.107093
 20
142.751679
 30
0.0
 10
149.831016
 20
136.390054
 30
0.0
 10
147.439780
 20
132.707707
 30
0.0
 10
144.893242
 20
129.861269
 30
0.0
 10
138.502755
 20
124.776822
 30
0.0
 10
131.401757
 20
121.976277
 30
0.0
 10
123.422760
 20
121.422444
 30
0.0
 10
114.398266
 20
123.077991
 30
0.0
 10
108.856406
 20
124.999172
 30
0.0
 10
102.813732
 20
127.662803
 30
0.0
 10
96.818837
 20
130.804328
 30
0.0
 10
91.420319
 20
134.159159
 30
0.0
 10
86.584629
 20
137.167370
 30
0.0
 10
82.256567
 20
139.077950
 30
0.0
 10
77.875688
 20
140.078239
 30
0.0
 10
72.881552
 20
140.355468
 30
0.0
 10
64.252174
 20
139.465956
 30
0.0
 10
56.778239
 20
136.984422
 30
0.0
 10
50.821991
 20
133.083014
 30
0.0
 10
46.745680
 20
127.933852
 30
0.0
 10
45.626165
 20
125.639263
 30
0.0
 10
45.037032
 20
123.780728
 30
0.0
 10
44.872339
 20
121.821732
 30
0.0
 10
45.026147
 20
119.225849
 30
0.0
 10
45.305019
 20
117.189468
 30
0.0
 10
45.755257
 20
115.086954
 30
0.0
 10
46.314675
 20
113.166113
 30
0.0
 10
46.921088
 20
111.674693
 30
0.0
 10
49.660396
 20
107.785814
 30
0.0
 10
53.332812
 20
104.633121
 30
0.0
 10
57.476976
 20
102.527008
 30
0.0
 10
61.631527
 20
101.777868
 30
0.0
 10
63.920083
 20
102.246860
 30
0.0
 10
66.588508
 20
103.410198
 30
0.0
 10
69.029989
 20
104.947002
 30
0.0
 10
70.637706
 20
106.536387
 30
0.0
 10
71.368586
 20
108.023216
 30
0.0
 10
71.366627
 20
109.111380
 30
0.0
 10
70.640575
 20
109.779732
 30
0.0
 10
69.199183
 20
110.007071
 30
0.0
 10
67.026339
 20
110.270976
 30
0.0
 10
64.863944
 20
110.963367
 30
0.0
 10
63.067048
 20
111.934998
 30
0.0
 10
61.990693
 20
113.036598
 30
0.0
 10
61.409886
 20
114.956674
 30
0.0
 10
61.300213
 20
117.372869
 30
0.0
 10
61.642596
 20
119.881134
 30
0.0
 10
62.417934
 20
122.077446
 30
0.0
 10
65.369183
 20
125.344857
 30
0.0
 10
69.556759
 20
127.077392
 30
0.0
 10
74.155147
 20
127.109424
 30
0.0
 10
78.338835
 20
125.274898
 30
0.0
 10
81.893254
 20
120.980239
 30
0.0
 10
84.226235
 20
114.973937
 30
0.0
 10
85.093883
 20
108.227764
 30
0.0
 10
84.252305
 20
101.713465
 30
0.0
 10
81.541176
 20
95.953011
 30
0.0
 10
77.243831
 20
91.694466
 30
0.0
 10
71.407843
 20
88.970683
 30
0.0
 10
64.080774
 20
87.814403
 30
0.0
 10
61.167719
 20
87.772450
 30
0.0
 10
58.356516
 20
87.903411
 30
0.0
 10
55.757769
 20
88.198526
 30
0.0
  0
LWPOLYLINE
  5
104
100
AcDbEntity
  8
Layer_1
 62
7
100
AcDbPolyline
 90
128
 70
1
 10
281.756548
 20
117.902381
 30
0.0
 10
265.679807
 20
122.165745
 30
0.0
 10
251.209576
 20
129.280224
 30
0.0
 10
239.568177
 20
138.482022
 30
0.0
 10
231.977931
 20
149.007402
 30
0.0
 10
230.804708
 20
151.709839
 30
0.0
 10
230.104879
 20
154.021436
 30
0.0
 10
229.767083
 20
156.450983
 30
0.0
 10
229.679946
 20
159.507383
 30
0.0
 10
229.763738
 20
162.147458
 30
0.0
 10
230.012110
 20
164.466057
 30
0.0
 10
230.423905
 20
166.454844
 30
0.0
 10
230.997954
 20
168.105600
 30
0.0
 10
231.327034
 20
168.848901
 30
0.0
 10
231.656117
 20
169.592202
 30
0.0
 10
231.985199
 20
170.335502
 30
0.0
 10
232.314279
 20
171.078803
 30
0.0
 10
233.085781
 20
169.491742
 30
0.0
 10
233.857284
 20
167.904680
 30
0.0
 10
234.628787
 20
166.317647
 30
0.0
 10
235.400289
 20
164.730586
 30
0.0
 10
240.416243
 20
156.702161
 30
0.0
 10
246.983831
 20
150.245150
 30
0.0
 10
255.317460
 20
145.194009
 30
0.0
 10
265.631530
 20
141.383112
 30
0.0
 10
269.077601
 20
140.520444
 30
0.0
 10
272.492819
 20
139.995071
 30
0.0
 10
276.602392
 20
139.730882
 30
0.0
 10
282.131529
 20
139.651795
 30
0.0
 10
288.003212
 20
139.701969
 30
0.0
 10
292.024015
 20
139.978346
 30
0.0
 10
295.383835
 20
140.630712
 30
0.0
 10
299.272686
 20
141.809017
 30
0.0
 10
305.303479
 20
144.231392
 30
0.0
 10
311.024418
 20
147.413962
 30
0.0
 10
316.292295
 20
151.265027
 30
0.0
 10
320.963961
 20
155.692942
 30
0.0
 10
327.613076
 20
164.959852
 30
0.0
 10
330.788673
 20
175.502636
 30
0.0
 10
330.694846
 20
188.906683
 30
0.0
 10
327.535407
 20
206.757354
 30
0.0
 10
324.935782
 20
219.247200
 30
0.0
 10
323.551171
 20
228.522643
 30
0.0
 10
323.275076
 20
235.634202
 30
0.0
 10
324.001199
 20
241.632369
 30
0.0
 10
325.525360
 20
247.288195
 30
0.0
 10
327.983168
 20
252.825420
 30
0.0
 10
331.953599
 20
259.328636
 30
0.0
 10
338.015716
 20
267.882378
 30
0.0
 10
343.932443
 20
276.264709
 30
0.0
 10
348.096283
 20
282.994129
 30
0.0
 10
350.785936
 20
288.571153
 30
0.0
 10
352.280163
 20
293.496236
 30
0.0
 10
352.679083
 20
299.389011
 30
0.0
 10
351.402868
 20
305.115052
 30
0.0
 10
348.459486
 20
310.652957
 30
0.0
 10
343.856985
 20
315.981354
 30
0.0
 10
340.354582
 20
318.979162
 30
0.0
 10
336.263366
 20
321.941537
 30
0.0
 10
332.275246
 20
324.403965
 30
0.0
 10
329.082103
 20
325.901849
 30
0.0
 10
319.553442
 20
325.927361
 30
0.0
 10
312.202327
 20
320.714476
 30
0.0
 10
308.768295
 20
312.439720
 30
0.0
 10
310.991026
 20
303.278627
 30
0.0
 10
313.269117
 20
300.278353
 30
0.0
 10
315.691180
 20
298.240554
 30
0.0
 10
318.265974
 20
297.159732
 30
0.0
 10
321.002257
 20
297.030472
 30
0.0
 10
323.116648
 20
297.553776
 30
0.0
 10
324.960160
 20
298.477191
 30
0.0
 10
326.262084
 20
299.622643
 30
0.0
 10
326.751797
 20
300.812145
 30
0.0
 10
326.572931
 20
301.231843
 30
0.0
 10
326.089029
 20
301.767477
 30
0.0
 10
325.374018
 20
302.350167
 30
0.0
 10
324.501797
 20
302.911030
 30
0.0
 10
322.503854
 20
305.030268
 30
0.0
 10
322.213133
 20
307.675928
 30
0.0
 10
323.507546
 20
310.217159
 30
0.0
 10
326.265004
 20
312.023112
 30
0.0
 10
328.360005
 20
311.980592
 30
0.0
 10
331.071599
 20
310.943537
 30
0.0
 10
333.770040
 20
309.231808
 30
0.0
 10
335.825640
 20
307.165351
 30
0.0
 10
337.269750
 20
304.113373
 30
0.0
 10
337.737750
 20
300.712620
 30
0.0
 10
337.232361
 20
297.464598
 30
0.0
 10
335.756475
 20
294.870728
 30
0.0
 10
331.588553
 20
291.780992
 30
0.0
 10
326.143454
 20
289.668728
 30
0.0
 10
320.174512
 20
288.734967
 30
0.0
 10
314.435035
 20
289.180743
 30
0.0
 10
308.461501
 20
291.894746
 30
0.0
 10
303.535568
 20
296.823657
 30
0.0
 10
300.055898
 20
303.420813
 30
0.0
 10
298.421158
 20
311.139524
 30
0.0
 10
298.300119
 20
313.917392
 30
0.0
 10
298.464528
 20
316.017298
 30
0.0
 10
299.001552
 20
317.937940
 30
0.0
 10
299.998242
 20
320.178076
 30
0.0
 10
303.934346
 20
326.170630
 30
0.0
 10
309.083791
 20
330.689934
 30
0.0
 10
315.282424
 20
333.628044
 30
0.0
 10
322.366062
 20
334.877131
 30
0.0
 10
329.949278
 20
334.411569
 30
0.0
 10
337.275703
 20
332.240202
 30
0.0
 10
344.389501
 20
328.344463
 30
0.0
 10
351.334723
 20
322.705871
 30
0.0
 10
357.257914
 20
315.804161
 30
0.0
 10
361.536812
 20
307.922542
 30
0.0
 10
364.132638
 20
299.155068
 30
0.0
 10
365.006531
 20
289.595707
 30
0.0
 10
364.205234
 20
280.276384
 30
0.0
 10
361.810298
 20
271.574929
 30
0.0
 10
357.835246
 20
263.526832
 30
0.0
 10
352.293542
 20
256.167524
 30
0.0
 10
347.210456
 20
249.041339
 30
0.0
 10
345.162197
 20
240.993014
 30
0.0
 10
346.018459
 20
229.933672
 30
0.0
 10
349.648931
 20
213.774520
 30
0.0
 10
353.634472
 20
197.092091
 30
0.0
 10
355.911259
 20
184.399285
 30
0.0
 10
356.648720
 20
174.422324
 30
0.0
 10
356.016141
 20
165.887490
 30
0.0
 10
347.461946
 20
143.783546
 30
0.0
 10
330.771353
 20
127.473109
 30
0.0
 10
308.138295
 20
118.373811
 30
0.0
  0
LWPOLYLINE
  5
105
100
AcDbEntity
  8
Layer_1
 62
7
100
AcDbPolyline
 90
120
 70
1
 10
121.256549
 20
159.226413
 30
0.0
 10
110.503956
 20
162.702567
 30
0.0
 10
100.761372
 20
168.599083
 30
0.0
 10
92.479912
 20
176.568917
 30
0.0
 10
86.110679
 20
186.264992
 30
0.0
 10
83.173620
 20
194.093206
 30
0.0
 10
81.612581
 20
202.705030
 30
0.0
 10
81.515013
 20
211.198677
 30
0.0
 10
82.968338
 20
218.672306
 30
0.0
 10
86.114310
 20
225.715436
 30
0.0
 10
90.922141
 20
232.513852
 30
0.0
 10
97.958650
 20
239.738683
 30
0.0
 10
107.790653
 20
248.060976
 30
0.0
 10
114.804780
 20
253.927020
 30
0.0
 10
119.858854
 20
258.907209
 30
0.0
 10
123.503162
 20
263.614365
 30
0.0
 10
126.287994
 20
268.661395
 30
0.0
 10
127.388514
 20
271.248860
 30
0.0
 10
128.022245
 20
273.594557
 30
0.0
 10
128.312240
 20
276.382403
 30
0.0
 10
128.381547
 20
280.296283
 30
0.0
 10
128.315727
 20
284.411480
 30
0.0
 10
127.968114
 20
287.259335
 30
0.0
 10
127.113452
 20
289.860860
 30
0.0
 10
125.526475
 20
293.237008
 30
0.0
 10
122.571561
 20
298.235055
 30
0.0
 10
118.868343
 20
303.021128
 30
0.0
 10
114.820430
 20
307.131959
 30
0.0
 10
110.831417
 20
310.104283
 30
0.0
 10
108.806431
 20
311.170734
 30
0.0
 10
106.880318
 20
311.783329
 30
0.0
 10
104.473534
 20
312.061124
 30
0.0
 10
101.006538
 20
312.123487
 30
0.0
 10
97.688395
 20
312.046668
 30
0.0
 10
95.246649
 20
311.781912
 30
0.0
 10
93.285774
 20
311.257871
 30
0.0
 10
91.410242
 20
310.403339
 30
0.0
 10
87.864599
 20
308.168447
 30
0.0
 10
84.771215
 20
305.478028
 30
0.0
 10
82.153222
 20
302.355638
 30
0.0
 10
80.033749
 20
298.824832
 30
0.0
 10
78.877712
 20
296.303046
 30
0.0
 10
78.184953
 20
294.125102
 30
0.0
 10
77.849124
 20
291.828331
 30
0.0
 10
77.763858
 20
288.950032
 30
0.0
 10
78.135976
 20
284.713739
 30
0.0
 10
79.164913
 20
280.737326
 30
0.0
 10
80.737401
 20
277.341846
 30
0.0
 10
82.740172
 20
274.848406
 30
0.0
 10
86.187300
 20
272.777868
 30
0.0
 10
90.429369
 20
271.533770
 30
0.0
 10
94.520027
 20
271.285739
 30
0.0
 10
97.512900
 20
272.202973
 30
0.0
 10
98.110667
 20
272.794054
 30
0.0
 10
98.053180
 20
273.452655
 30
0.0
 10
97.198889
 20
274.433244
 30
0.0
 10
95.406253
 20
275.990287
 30
0.0
 10
93.758805
 20
277.472693
 30
0.0
 10
92.714179
 20
278.708910
 30
0.0
 10
92.165658
 20
279.858728
 30
0.0
 10
92.006521
 20
281.082019
 30
0.0
 10
93.498684
 20
285.910384
 30
0.0
 10
97.322865
 20
289.017808
 30
0.0
 10
102.500606
 20
289.963757
 30
0.0
 10
108.053447
 20
288.307616
 30
0.0
 10
112.250458
 20
284.145789
 30
0.0
 10
113.765683
 20
278.562983
 30
0.0
 10
112.575779
 20
272.401880
 30
0.0
 10
108.657400
 20
266.505137
 30
0.0
 10
98.157098
 20
260.220671
 30
0.0
 10
86.624938
 20
260.265742
 30
0.0
 10
76.132857
 20
266.088472
 30
0.0
 10
68.752789
 20
277.136787
 30
0.0
 10
66.330085
 20
287.186202
 30
0.0
 10
66.477430
 20
297.281820
 30
0.0
 10
69.104347
 20
306.784573
 30
0.0
 10
74.120380
 20
315.055389
 30
0.0
 10
79.382327
 20
319.880183
 30
0.0
 10
86.013238
 20
323.569814
 30
0.0
 10
93.552568
 20
325.927729
 30
0.0
 10
101.539769
 20
326.757373
 30
0.0
 10
117.840762
 20
323.732098
 30
0.0
 10
130.174228
 20
315.062447
 30
0.0
 10
137.991399
 20
301.357786
 30
0.0
 10
140.743508
 20
283.227449
 30
0.0
 10
139.862313
 20
273.056343
 30
0.0
 10
137.193401
 20
264.357184
 30
0.0
 10
132.758084
 20
257.177650
 30
0.0
 10
126.577687
 20
251.565420
 30
0.0
 10
119.932279
 20
246.263641
 30
0.0
 10
114.271027
 20
240.203254
 30
0.0
 10
109.845729
 20
233.697969
 30
0.0
 10
106.908180
 20
227.061468
 30
0.0
 10
105.343245
 20
215.700917
 30
0.0
 10
106.800695
 20
203.025402
 30
0.0
 10
110.853890
 20
190.951087
 30
0.0
 10
117.076192
 20
181.394107
 30
0.0
 10
124.019972
 20
176.209228
 30
0.0
 10
132.819888
 20
173.364803
 30
0.0
 10
143.221226
 20
172.904683
 30
0.0
 10
154.969268
 20
174.872721
 30
0.0
 10
156.846285
 20
175.323373
 30
0.0
 10
158.498161
 20
175.654176
 30
0.0
 10
159.746301
 20
175.833609
 30
0.0
 10
160.412114
 20
175.830775
 30
0.0
 10
159.589913
 20
174.332409
 30
0.0
 10
156.420482
 20
171.203471
 30
0.0
 10
152.271405
 20
167.685987
 30
0.0
 10
148.510267
 20
165.021931
 30
0.0
 10
143.885083
 20
162.670082
 30
0.0
 10
139.034602
 20
160.880343
 30
0.0
 10
134.082343
 20
159.690246
 30
0.0
 10
129.151823
 20
159.137348
 30
0.0
 10
126.666306
 20
159.059679
 30
0.0
 10
124.349207
 20
159.051175
 30
0.0
 10
122.459593
 20
159.107868
 30
0.0
 10
121.256527
 20
159.227206
 30
0.0
 10
121.256527
 20
159.227206
 30
0.0
 10
121.256527
 20
159.227206
 30
0.0
 10
121.256527
 20
159.227235
 30
0.0
  0
LWPOLYLINE
  5
106
100
AcDbEntity
  8
Layer_1
 62
7
100
AcDbPolyline
 90
94
 70
1
 10
222.484440
 20
330.641017
 30
0.0
 10
222.592692
 20
330.106284
 30
0.0
 10
222.641400
 20
328.338580
 30
0.0
 10
221.747549
 20
327.623017
 30
0.0
 10
221.228463
 20
328.223943
 30
0.0
 10
217.435752
 20
332.438004
 30
0.0
 10
216.488799
 20
332.850191
 30
0.0
 10
216.840675
 20
330.110752
 30
0.0
 10
215.229966
 20
330.960449
 30
0.0
 10
213.338346
 20
332.688329
 30
0.0
 10
210.676946
 20
334.494659
 30
0.0
 10
210.874973
 20
334.126347
 30
0.0
 10
211.417026
 20
332.402814
 30
0.0
 10
210.923881
 20
331.441553
 30
0.0
 10
209.285505
 20
332.545541
 30
0.0
 10
205.522347
 20
335.166187
 30
0.0
 10
203.864090
 20
335.832608
 30
0.0
 10
203.336359
 20
335.955514
 30
0.0
 10
203.840435
 20
334.567831
 30
0.0
 10
204.343942
 20
333.180245
 30
0.0
 10
204.020761
 20
333.256066
 30
0.0
 10
199.113620
 20
335.328288
 30
0.0
 10
197.058290
 20
336.369421
 30
0.0
 10
197.126267
 20
336.061834
 30
0.0
 10
197.324832
 20
330.177855
 30
0.0
 10
197.230180
 20
329.459342
 30
0.0
 10
195.934538
 20
330.137591
 30
0.0
 10
194.398824
 20
331.037001
 30
0.0
 10
194.184382
 20
330.323165
 30
0.0
 10
195.895383
 20
325.530647
 30
0.0
 10
196.251049
 20
324.355429
 30
0.0
 10
196.129088
 20
323.951261
 30
0.0
 10
194.563749
 20
324.363819
 30
0.0
 10
192.905485
 20
325.526010
 30
0.0
 10
194.797850
 20
319.570834
 30
0.0
 10
195.301181
 20
318.270441
 30
0.0
 10
194.798024
 20
318.152578
 30
0.0
 10
192.562356
 20
319.059901
 30
0.0
 10
192.172947
 20
319.324467
 30
0.0
 10
192.322404
 20
318.874442
 30
0.0
 10
195.076864
 20
313.329321
 30
0.0
 10
195.031558
 20
312.058302
 30
0.0
 10
192.989061
 20
312.805096
 30
0.0
 10
192.525173
 20
313.096510
 30
0.0
 10
193.995505
 20
310.279303
 30
0.0
 10
196.009381
 20
307.507948
 30
0.0
 10
197.366902
 20
305.569975
 30
0.0
 10
196.613514
 20
305.426402
 30
0.0
 10
195.047203
 20
305.772216
 30
0.0
 10
194.175981
 20
306.136007
 30
0.0
 10
194.463825
 20
305.684991
 30
0.0
 10
198.909606
 20
301.115508
 30
0.0
 10
200.045863
 20
300.018499
 30
0.0
 10
199.757048
 20
299.691415
 30
0.0
 10
197.814980
 20
299.586186
 30
0.0
 10
197.128218
 20
299.722214
 30
0.0
 10
197.534144
 20
299.301901
 30
0.0
 10
202.254354
 20
295.901496
 30
0.0
 10
204.379908
 20
294.298932
 30
0.0
 10
202.255175
 20
293.572569
 30
0.0
 10
201.541418
 20
293.579045
 30
0.0
 10
201.893594
 20
293.351467
 30
0.0
 10
202.437743
 20
292.985055
 30
0.0
 10
206.957703
 20
291.023241
 30
0.0
 10
216.013918
 20
289.493681
 30
0.0
 10
222.278512
 20
291.501329
 30
0.0
 10
224.320755
 20
293.434941
 30
0.0
 10
224.521973
 20
293.717458
 30
0.0
 10
223.615333
 20
296.256151
 30
0.0
 10
218.635231
 20
307.142319
 30
0.0
 10
207.250280
 20
324.696553
 30
0.0
 10
206.050895
 20
326.302900
 30
0.0
 10
209.317059
 20
323.143884
 30
0.0
 10
222.820026
 20
306.538651
 30
0.0
 10
228.374143
 20
296.810778
 30
0.0
 10
228.982008
 20
295.630479
 30
0.0
 10
230.851551
 20
295.696684
 30
0.0
 10
237.797851
 20
301.014383
 30
0.0
 10
238.285964
 20
314.105839
 30
0.0
 10
237.152474
 20
317.644577
 30
0.0
 10
236.752709
 20
317.190339
 30
0.0
 10
235.257148
 20
315.916949
 30
0.0
 10
234.949178
 20
316.890454
 30
0.0
 10
232.956307
 20
322.986159
 30
0.0
 10
232.612271
 20
323.091144
 30
0.0
 10
232.296175
 20
322.204167
 30
0.0
 10
230.806530
 20
321.025708
 30
0.0
 10
230.362963
 20
321.686922
 30
0.0
 10
229.079451
 20
325.318793
 30
0.0
 10
228.029975
 20
326.957050
 30
0.0
 10
228.029097
 20
326.581978
 30
0.0
 10
227.164810
 20
324.782203
 30
0.0
 10
225.937254
 20
325.427929
 30
0.0
 10
223.146628
 20
329.964227
 30
0.0
  0
LWPOLYLINE
  5
107
100
AcDbEntity
  8
Layer_1
 62
7
100
AcDbPolyline
 90
91
 70
1
 10
276.620840
 20
304.741761
 30
0.0
 10
275.568068
 20
304.829003
 30
0.0
 10
270.565394
 20
304.104751
 30
0.0
 10
269.285303
 20
304.618462
 30
0.0
 10
270.049186
 20
306.460611
 30
0.0
 10
269.960943
 20
306.712416
 30
0.0
 10
265.074336
 20
305.264134
 30
0.0
 10
264.134923
 20
305.109219
 30
0.0
 10
263.805024
 20
306.203874
 30
0.0
 10
264.481259
 20
307.774719
 30
0.0
 10
264.518937
 20
308.099743
 30
0.0
 10
257.629829
 20
305.362565
 30
0.0
 10
257.403076
 20
305.235215
 30
0.0
 10
257.314885
 20
305.586847
 30
0.0
 10
257.448936
 20
307.424885
 30
0.0
 10
257.534798
 20
307.908965
 30
0.0
 10
254.155640
 20
306.587605
 30
0.0
 10
247.351598
 20
301.526471
 30
0.0
 10
244.049517
 20
296.908798
 30
0.0
 10
245.248009
 20
288.397399
 30
0.0
 10
247.268776
 20
287.787021
 30
0.0
 10
281.807698
 20
289.403681
 30
0.0
 10
283.880468
 20
289.128941
 30
0.0
 10
281.846360
 20
289.032939
 30
0.0
 10
255.794032
 20
285.535439
 30
0.0
 10
247.330483
 20
282.632116
 30
0.0
 10
247.108217
 20
280.003188
 30
0.0
 10
249.502289
 20
273.514739
 30
0.0
 10
252.633795
 20
270.341841
 30
0.0
 10
257.753923
 20
266.567460
 30
0.0
 10
261.626891
 20
264.815195
 30
0.0
 10
261.627410
 20
264.814947
 30
0.0
 10
261.429841
 20
265.320249
 30
0.0
 10
260.807844
 20
266.197969
 30
0.0
 10
260.634178
 20
267.363757
 30
0.0
 10
263.187319
 20
266.792697
 30
0.0
 10
268.677518
 20
265.279879
 30
0.0
 10
269.404842
 20
265.205650
 30
0.0
 10
268.888309
 20
265.623460
 30
0.0
 10
267.724424
 20
267.168858
 30
0.0
 10
269.150358
 20
267.516267
 30
0.0
 10
273.800868
 20
266.918819
 30
0.0
 10
275.992119
 20
266.990905
 30
0.0
 10
275.499489
 20
267.318742
 30
0.0
 10
274.485844
 20
267.961791
 30
0.0
 10
273.683666
 20
269.146578
 30
0.0
 10
276.036846
 20
269.281840
 30
0.0
 10
279.457565
 20
269.493707
 30
0.0
 10
282.491722
 20
270.119081
 30
0.0
 10
281.858019
 20
270.339739
 30
0.0
 10
279.968736
 20
271.568816
 30
0.0
 10
279.820410
 20
272.038726
 30
0.0
 10
280.925512
 20
272.259558
 30
0.0
 10
284.744518
 20
272.968264
 30
0.0
 10
287.284778
 20
273.823102
 30
0.0
 10
286.568665
 20
274.112802
 30
0.0
 10
284.585876
 20
275.556746
 30
0.0
 10
286.014283
 20
276.053624
 30
0.0
 10
288.823560
 20
276.975996
 30
0.0
 10
291.727493
 20
278.307024
 30
0.0
 10
291.272345
 20
278.405732
 30
0.0
 10
288.408170
 20
279.833231
 30
0.0
 10
288.659359
 20
280.212677
 30
0.0
 10
289.955663
 20
280.732158
 30
0.0
 10
293.738560
 20
281.977446
 30
0.0
 10
295.213254
 20
282.912195
 30
0.0
 10
294.883190
 20
283.029708
 30
0.0
 10
291.947798
 20
284.266035
 30
0.0
 10
292.756932
 20
285.129249
 30
0.0
 10
296.701121
 20
288.183677
 30
0.0
 10
297.303036
 20
288.518310
 30
0.0
 10
296.638150
 20
288.795759
 30
0.0
 10
290.492886
 20
291.947663
 30
0.0
 10
290.228885
 20
292.152324
 30
0.0
 10
291.601288
 20
292.641739
 30
0.0
 10
292.974022
 20
293.131868
 30
0.0
 10
292.579716
 20
293.424958
 30
0.0
 10
286.207920
 20
295.692837
 30
0.0
 10
284.844428
 20
296.769212
 30
0.0
 10
286.820926
 20
297.859304
 30
0.0
 10
286.202808
 20
298.342571
 30
0.0
 10
281.623776
 20
299.244883
 30
0.0
 10
279.874975
 20
299.840214
 30
0.0
 10
282.299144
 20
301.460814
 30
0.0
 10
282.578159
 20
301.619933
 30
0.0
 10
279.216110
 20
302.237684
 30
0.0
 10
275.570790
 20
302.185997
 30
0.0
 10
274.976359
 20
302.154502
 30
0.0
 10
274.782091
 20
302.564659
 30
0.0
 10
274.880449
 20
303.347737
 30
0.0
 10
276.237222
 20
304.482482
 30
0.0
  0
LWPOLYLINE
  5
108
100
AcDbEntity
  8
Layer_1
 62
7
100
AcDbPolyline
 90
20
 70
1
 10
230.007970
 20
279.320366
 30
0.0
 10
227.661842
 20
280.217435
 30
0.0
 10
215.465594
 20
280.172805
 30
0.0
 10
211.431779
 20
277.849503
 30
0.0
 10
210.259769
 20
274.434478
 30
0.0
 10
210.369713
 20
273.185311
 30
0.0
 10
216.353728
 20
264.488537
 30
0.0
 10
221.116159
 20
261.281458
 30
0.0
 10
223.235345
 20
260.113812
 30
0.0
 10
223.913638
 20
259.789808
 30
0.0
 10
225.301567
 20
259.240296
 30
0.0
 10
227.907692
 20
258.453300
 30
0.0
 10
229.642193
 20
257.995550
 30
0.0
 10
234.130326
 20
257.568360
 30
0.0
 10
238.728688
 20
258.393048
 30
0.0
 10
241.702431
 20
260.797303
 30
0.0
 10
242.267547
 20
264.315616
 30
0.0
 10
239.834785
 20
270.600847
 30
0.0
 10
237.237686
 20
274.135388
 30
0.0
 10
234.028971
 20
277.046311
 30
0.0
  0
LWPOLYLINE
  5
109
100
AcDbEntity
  8
Layer_1
 62
7
100
AcDbPolyline
 90
18
 70
1
 10
205.744305
 20
286.877875
 30
0.0
 10
193.736556
 20
288.811462
 30
0.0
 10
182.668943
 20
283.781518
 30
0.0
 10
177.382997
 20
276.755110
 30
0.0
 10
176.717638
 20
275.188496
 30
0.0
 10
176.906826
 20
274.771513
 30
0.0
 10
178.618094
 20
274.190969
 30
0.0
 10
178.618612
 20
274.190721
 30
0.0
 10
179.790174
 20
274.110104
 30
0.0
 10
182.622715
 20
274.251352
 30
0.0
 10
184.399126
 20
274.436235
 30
0.0
 10
189.512497
 20
275.297887
 30
0.0
 10
192.436078
 20
275.966653
 30
0.0
 10
201.238574
 20
278.483228
 30
0.0
 10
206.487710
 20
280.518399
 30
0.0
 10
208.088034
 20
281.346529
 30
0.0
 10
210.399585
 20
283.206836
 30
0.0
 10
209.251149
 20
284.742411
 30
0.0
  0
LWPOLYLINE
  5
10a
100
AcDbEntity
  8
Layer_1
 62
7
100
AcDbPolyline
 90
21
 70
1
 10
251.936260
 20
264.738573
 30
0.0
 10
247.769578
 20
266.201706
 30
0.0
 10
246.743979
 20
266.364996
 30
0.0
 10
246.465228
 20
262.858624
 30
0.0
 10
246.771510
 20
261.679414
 30
0.0
 10
247.252063
 20
260.056480
 30
0.0
 10
247.799099
 20
258.305953
 30
0.0
 10
250.772628
 20
250.417031
 30
0.0
 10
252.965760
 20
245.873569
 30
0.0
 10
254.040567
 20
243.745600
 30
0.0
 10
256.091934
 20
240.031137
 30
0.0
 10
257.062142
 20
238.479449
 30
0.0
 10
258.781536
 20
236.125971
 30
0.0
 10
259.152094
 20
235.675245
 30
0.0
 10
260.610310
 20
234.264019
 30
0.0
 10
261.481302
 20
234.178595
 30
0.0
 10
262.604392
 20
236.352607
 30
0.0
 10
263.805704
 20
239.758000
 30
0.0
 10
262.452263
 20
254.283718
 30
0.0
 10
260.138833
 20
258.159846
 30
0.0
 10
255.693677
 20
262.570351
 30
0.0
  0
LWPOLYLINE
  5
10b
100
AcDbEntity
  8
Layer_1
 62
7
100
AcDbPolyline
 90
25
 70
1
 10
240.466994
 20
250.892189
 30
0.0
 10
239.594554
 20
251.289730
 30
0.0
 10
233.257172
 20
252.648266
 30
0.0
 10
229.249664
 20
252.044091
 30
0.0
 10
226.426944
 20
250.693996
 30
0.0
 10
224.278326
 20
249.247961
 30
0.0
 10
221.424008
 20
246.135005
 30
0.0
 10
219.633391
 20
243.161759
 30
0.0
 10
218.944519
 20
241.361286
 30
0.0
 10
217.650610
 20
236.688087
 30
0.0
 10
217.734669
 20
229.187336
 30
0.0
 10
220.508824
 20
221.366069
 30
0.0
 10
223.483706
 20
217.249568
 30
0.0
 10
226.914337
 20
214.485239
 30
0.0
 10
228.136365
 20
213.696915
 30
0.0
 10
230.017183
 20
212.781038
 30
0.0
 10
233.891148
 20
211.965891
 30
0.0
 10
235.095919
 20
211.912353
 30
0.0
 10
238.935082
 20
212.416615
 30
0.0
 10
247.610868
 20
218.994244
 30
0.0
 10
249.125461
 20
221.781106
 30
0.0
 10
250.296242
 20
224.887737
 30
0.0
 10
251.147704
 20
230.405083
 30
0.0
 10
250.816563
 20
235.480783
 30
0.0
 10
242.304346
 20
249.733131
 30
0.0
  0
LWPOLYLINE
  5
10c
100
AcDbEntity
  8
Layer_1
 62
7
100
AcDbPolyline
 90
14
 70
1
 10
204.082403
 20
267.502030
 30
0.0
 10
201.310379
 20
268.594509
 30
0.0
 10
188.518373
 20
267.755641
 30
0.0
 10
182.602079
 20
264.446416
 30
0.0
 10
175.952823
 20
256.116264
 30
0.0
 10
174.467597
 20
251.478242
 30
0.0
 10
180.761709
 20
235.751430
 30
0.0
 10
184.686239
 20
233.668347
 30
0.0
 10
190.326159
 20
232.573669
 30
0.0
 10
198.773279
 20
234.089010
 30
0.0
 10
209.420565
 20
242.354912
 30
0.0
 10
211.773606
 20
246.543661
 30
0.0
 10
213.085703
 20
253.584014
 30
0.0
 10
208.684358
 20
264.282055
 30
0.0
  0
LWPOLYLINE
  5
10d
100
AcDbEntity
  8
Layer_1
 62
7
100
AcDbPolyline
 90
16
 70
1
 10
260.825742
 20
229.410650
 30
0.0
 10
259.674683
 20
229.507135
 30
0.0
 10
256.510232
 20
226.205758
 30
0.0
 10
254.383725
 20
222.213940
 30
0.0
 10
252.325364
 20
216.950327
 30
0.0
 10
251.446407
 20
214.014329
 30
0.0
 10
251.079790
 20
212.588683
 30
0.0
 10
249.816939
 20
206.429058
 30
0.0
 10
249.618012
 20
204.665477
 30
0.0
 10
249.548985
 20
201.352195
 30
0.0
 10
249.686506
 20
200.089681
 30
0.0
 10
250.332354
 20
197.959231
 30
0.0
 10
251.514127
 20
197.166394
 30
0.0
 10
256.322359
 20
199.410429
 30
0.0
 10
265.347640
 20
213.881170
 30
0.0
 10
262.770243
 20
226.729691
 30
0.0
  0
LWPOLYLINE
  5
10e
100
AcDbEntity
  8
Layer_1
 62
7
100
AcDbPolyline
 90
22
 70
1
 10
173.021045
 20
270.258618
 30
0.0
 10
172.793620
 20
270.348051
 30
0.0
 10
170.628049
 20
270.379784
 30
0.0
 10
160.721470
 20
265.982116
 30
0.0
 10
159.123349
 20
264.473000
 30
0.0
 10
155.493256
 20
259.334696
 30
0.0
 10
154.294326
 20
256.396526
 30
0.0
 10
153.398038
 20
248.895178
 30
0.0
 10
154.252395
 20
244.077537
 30
0.0
 10
156.240239
 20
242.292870
 30
0.0
 10
158.510842
 20
243.138085
 30
0.0
 10
159.213655
 20
243.566094
 30
0.0
 10
161.773291
 20
245.660346
 30
0.0
 10
162.571466
 20
246.506625
 30
0.0
 10
166.148492
 20
250.700740
 30
0.0
 10
166.853441
 20
251.692449
 30
0.0
 10
167.421131
 20
252.449122
 30
0.0
 10
168.209745
 20
253.569847
 30
0.0
 10
172.742144
 20
262.572860
 30
0.0
 10
173.704287
 20
268.941589
 30
0.0
 10
173.617715
 20
269.312871
 30
0.0
 10
173.435864
 20
269.800890
 30
0.0
  0
LWPOLYLINE
  5
10f
100
AcDbEntity
  8
Layer_1
 62
7
100
AcDbPolyline
 90
23
 70
1
 10
207.009173
 20
226.310286
 30
0.0
 10
194.251989
 20
227.897311
 30
0.0
 10
187.522392
 20
224.982341
 30
0.0
 10
186.558459
 20
224.280179
 30
0.0
 10
185.120832
 20
223.004952
 30
0.0
 10
182.088446
 20
218.595017
 30
0.0
 10
181.088083
 20
216.130382
 30
0.0
 10
180.465516
 20
211.987159
 30
0.0
 10
182.633465
 20
202.980031
 30
0.0
 10
185.483527
 20
199.058093
 30
0.0
 10
189.417143
 20
195.740329
 30
0.0
 10
193.514538
 20
193.676619
 30
0.0
 10
207.225200
 20
193.696113
 30
0.0
 10
213.199791
 20
197.487922
 30
0.0
 10
216.556824
 20
202.131017
 30
0.0
 10
218.020760
 20
206.662598
 30
0.0
 10
218.109924
 20
210.303523
 30
0.0
 10
217.967617
 20
211.730844
 30
0.0
 10
216.663402
 20
216.290820
 30
0.0
 10
215.972896
 20
217.713441
 30
0.0
 10
212.161537
 20
222.659287
 30
0.0
 10
211.061175
 20
223.600544
 30
0.0
 10
209.427120
 20
224.895713
 30
0.0
  0
LWPOLYLINE
  5
110
100
AcDbEntity
  8
Layer_1
 62
7
100
AcDbPolyline
 90
20
 70
1
 10
243.132273
 20
202.120886
 30
0.0
 10
241.093649
 20
202.758822
 30
0.0
 10
236.892324
 20
203.092478
 30
0.0
 10
233.913389
 20
202.688435
 30
0.0
 10
229.352795
 20
201.388693
 30
0.0
 10
225.589432
 20
199.782672
 30
0.0
 10
219.655449
 20
196.151094
 30
0.0
 10
216.955457
 20
193.807050
 30
0.0
 10
216.213043
 20
193.072741
 30
0.0
 10
212.576471
 20
188.336763
 30
0.0
 10
210.875855
 20
183.435563
 30
0.0
 10
211.698773
 20
179.432627
 30
0.0
 10
213.461049
 20
177.593187
 30
0.0
 10
217.036797
 20
175.979405
 30
0.0
 10
232.666003
 20
176.417189
 30
0.0
 10
243.189735
 20
185.071690
 30
0.0
 10
244.751137
 20
188.042879
 30
0.0
 10
246.068592
 20
191.480251
 30
0.0
 10
246.832059
 20
196.743392
 30
0.0
 10
245.495120
 20
200.339685
 30
0.0
  0
LWPOLYLINE
  5
111
100
AcDbEntity
  8
Layer_1
 62
7
100
AcDbPolyline
 90
23
 70
1
 10
163.507175
 20
237.364531
 30
0.0
 10
162.157251
 20
237.819429
 30
0.0
 10
159.711811
 20
237.705020
 30
0.0
 10
159.041565
 20
237.499388
 30
0.0
 10
153.878300
 20
231.650654
 30
0.0
 10
151.608600
 20
220.184592
 30
0.0
 10
154.450419
 20
210.377785
 30
0.0
 10
157.350255
 20
206.241097
 30
0.0
 10
162.605279
 20
201.777857
 30
0.0
 10
165.168641
 20
200.661633
 30
0.0
 10
166.377245
 20
200.505889
 30
0.0
 10
169.670776
 20
201.443432
 30
0.0
 10
171.166542
 20
202.550187
 30
0.0
 10
173.854570
 20
207.766319
 30
0.0
 10
174.303023
 20
209.870689
 30
0.0
 10
174.664245
 20
214.586686
 30
0.0
 10
174.619873
 20
215.893559
 30
0.0
 10
173.471443
 20
223.071276
 30
0.0
 10
172.745033
 20
225.483554
 30
0.0
 10
171.431344
 20
228.845647
 30
0.0
 10
170.951608
 20
229.799428
 30
0.0
 10
169.329198
 20
232.419749
 30
0.0
 10
164.316362
 20
236.951992
 30
0.0
  0
LWPOLYLINE
  5
112
100
AcDbEntity
  8
Layer_1
 62
7
100
AcDbPolyline
 90
21
 70
1
 10
191.207281
 20
188.919609
 30
0.0
 10
187.544621
 20
190.493034
 30
0.0
 10
183.698093
 20
191.809172
 30
0.0
 10
181.924338
 20
192.292831
 30
0.0
 10
178.193171
 20
192.970988
 30
0.0
 10
176.706726
 20
193.083313
 30
0.0
 10
171.248436
 20
192.137489
 30
0.0
 10
169.909564
 20
189.995851
 30
0.0
 10
173.540066
 20
180.838408
 30
0.0
 10
180.043328
 20
174.666582
 30
0.0
 10
184.640274
 20
172.510884
 30
0.0
 10
199.690007
 20
172.950702
 30
0.0
 10
203.157973
 20
174.758400
 30
0.0
 10
204.132334
 20
176.603875
 30
0.0
 10
203.849109
 20
178.026763
 30
0.0
 10
202.474903
 20
180.560644
 30
0.0
 10
201.215147
 20
181.864503
 30
0.0
 10
197.876737
 20
184.834235
 30
0.0
 10
195.927395
 20
186.179109
 30
0.0
 10
194.553605
 20
187.036609
 30
0.0
 10
193.077937
 20
187.909083
 30
0.0
  0
ENDSEC
  0
SECTION
  2
OBJECTS
  0
DICTIONARY
  5
C
330
0
100
AcDbDictionary
  3
ACAD_GROUP
350
D
  3
ACAD_MLINESTYLE
350
17
  0
DICTIONARY
  5
D
330
C
100
AcDbDictionary
  0
DICTIONARY
  5
1A
330
C
100
AcDbDictionary
  0
DICTIONARY
  5
17
330
C
100
AcDbDictionary
  3
STANDARD
350
18
  0
DICTIONARY
  5
19
330
C
100
AcDbDictionary
  0
ENDSEC
  0
EOF
