<?xml version="1.0" encoding="UTF-8" standalone="no"?>
<!-- Created with Inkscape (http://www.inkscape.org/) -->

<svg
   xmlns:dc="http://purl.org/dc/elements/1.1/"
   xmlns:cc="http://creativecommons.org/ns#"
   xmlns:rdf="http://www.w3.org/1999/02/22-rdf-syntax-ns#"
   xmlns:svg="http://www.w3.org/2000/svg"
   xmlns="http://www.w3.org/2000/svg"
   xmlns:sodipodi="http://sodipodi.sourceforge.net/DTD/sodipodi-0.dtd"
   xmlns:inkscape="http://www.inkscape.org/namespaces/inkscape"
   width="210mm"
   height="297mm"
   viewBox="0 0 210 297"
   version="1.1"
   id="svg90"
   inkscape:version="0.92.4 5da689c313, 2019-01-14"
   sodipodi:docname="octopus-pi.svg">
  <defs
     id="defs84">
    <marker
       style="overflow:visible"
       refY="0.0"
       refX="0.0"
       orient="auto"
       id="DistanceX">
      <path
         id="path154"
         style="stroke:#000000; stroke-width:0.5"
         d="M 3,-3 L -3,3 M 0,-5 L  0,5" />
    </marker>
    <pattern
       y="0"
       x="0"
       width="8"
       patternUnits="userSpaceOnUse"
       id="Hatch"
       height="8">
      <path
         id="path157"
         stroke-width="0.25"
         stroke="#000000"
         linecap="square"
         d="M8 4 l-4,4" />
      <path
         id="path159"
         stroke-width="0.25"
         stroke="#000000"
         linecap="square"
         d="M6 2 l-4,4" />
      <path
         id="path161"
         stroke-width="0.25"
         stroke="#000000"
         linecap="square"
         d="M4 0 l-4,4" />
    </pattern>
    <symbol
       id="*MODEL_SPACE" />
    <symbol
       id="*PAPER_SPACE" />
  </defs>
  <sodipodi:namedview
     id="base"
     pagecolor="#ffffff"
     bordercolor="#666666"
     borderopacity="1.0"
     inkscape:pageopacity="0.0"
     inkscape:pageshadow="2"
     inkscape:zoom="1.4"
     inkscape:cx="74.16852"
     inkscape:cy="261.69434"
     inkscape:document-units="mm"
     inkscape:current-layer="layer1"
     showgrid="false"
     inkscape:window-width="1920"
     inkscape:window-height="1016"
     inkscape:window-x="0"
     inkscape:window-y="27"
     inkscape:window-maximized="1" />
  <metadata
     id="metadata87">
    <rdf:RDF>
      <cc:Work
         rdf:about="">
        <dc:format>image/svg+xml</dc:format>
        <dc:type
           rdf:resource="http://purl.org/dc/dcmitype/StillImage" />
        <dc:title></dc:title>
      </cc:Work>
    </rdf:RDF>
  </metadata>
  <g
     inkscape:label="Layer 1"
     inkscape:groupmode="layer"
     id="layer1">
    <path
       style="fill:#352535;stroke-width:0.26458332"
       d="m 79.553699,295.34817 -3.002263,-1.02529 -2.680191,-1.6679 -2.25884,-2.2321 -1.738209,-2.71792 -0.567898,-1.21167 -0.310307,-0.91663 -0.128785,-0.94388 -0.02333,-1.29344 0.02802,-1.15931 0.09104,-0.8593 0.17488,-0.67984 0.279541,-0.62093 1.809732,-2.25025 2.496609,-1.65675 2.779324,-0.86972 2.657873,0.11086 2.305304,1.0924 1.759497,1.73455 1.013145,2.09939 0.06625,2.18692 -0.409516,0.877 -0.774684,0.93946 -0.987278,0.8472 -1.047295,0.60022 -1.178888,0.15058 -1.091264,-0.416 -0.802363,-0.84821 -0.312183,-1.14604 0.139351,-0.85345 0.40864,-0.6261 0.663811,-0.38542 0.904865,-0.13143 0.677405,-0.0461 0.310872,-0.18779 -0.01902,-0.40375 -0.312277,-0.69395 -0.7236,-0.88993 -1.002703,-0.51975 -1.182353,-0.12042 -1.262551,0.30804 -2.343264,1.72019 -1.143301,2.45062 0.133246,2.78413 1.486377,2.72073 1.09569,1.08254 1.193436,0.69685 1.497378,0.39482 2.007516,0.17644 3.089618,-0.11589 2.738355,-0.63313 2.460188,-1.1758 2.255115,-1.74389 1.8445,-2.15259 1.281365,-2.51435 0.747417,-2.95479 0.242653,-3.47391 -0.758318,-5.6464 -2.387519,-4.35354 -4.185572,-3.25616 -6.152472,-2.35424 -2.326189,-0.71798 -1.908149,-0.79103 -1.664459,-0.94898 -1.595119,-1.19185 -3.180791,-3.58567 -1.447877,-3.87153 0.328523,-3.85715 2.148408,-3.54251 1.08685,-1.01872 1.250106,-0.98485 1.071458,-0.70247 0.550906,-0.1716 0.02193,0.12702 -0.02533,0.26076 -0.06692,0.35651 -0.102837,0.41423 -0.101356,0.53676 -0.0629,0.69011 -0.01939,0.75451 0.0292,0.72993 0.939984,3.30966 2.284483,3.09902 3.649145,2.90882 5.033971,2.73901 1.126037,0.55522 1.215489,0.65289 1.158728,0.66914 0.955753,0.60397 1.883477,1.46982 1.952789,1.85024 1.761875,1.9635 1.310736,1.8096 1.551342,3.06632 1.08242,3.27616 0.58573,3.37528 0.0613,3.3637 -0.46551,3.52523 -0.9557,3.0433 -1.509084,2.70888 -2.125698,2.52199 -3.913274,3.14351 -4.338695,2.05909 -4.546727,0.90224 z m -70.5680682,-2.07036 -2.0655561,-0.96671 -1.9476029,-1.44762 -1.6579514,-1.77504 -1.1966016,-1.94902 -0.5118842,-1.58117 -0.2891167,-1.8974 -0.04663,-1.98556 0.2155751,-1.84569 0.87133,-2.6082 1.4232433,-2.39394 1.8458167,-2.00561 2.13905,-1.44322 2.6021352,-0.8201 2.977556,-0.15262 3.163092,0.50399 3.15874,1.14973 1.687363,0.8766 1.836201,1.1442 2.343608,1.65163 3.209584,2.39892 1.632645,1.19439 1.616767,1.10736 1.41423,0.89691 1.025032,0.56302 4.586415,1.54678 4.841238,0.63114 4.705695,-0.29812 4.179782,-1.24099 3.10894,-2.1149 2.343315,-3.13845 1.535336,-4.08315 0.685,-4.94897 0.0106,-2.65976 -0.269877,-2.68436 -0.618077,-3.15423 -1.033993,-4.06936 -0.483731,-1.86162 -0.417786,-1.74376 -0.307195,-1.43043 -0.151955,-0.92162 0.0099,-1.44098 0.259713,-1.59549 0.468219,-1.57039 0.635424,-1.36567 1.453,-1.90271 1.856455,-1.5687 2.068505,-1.10434 2.08915,-0.50963 0.362072,-0.03 0.362072,-0.03 0.362071,-0.03 0.362072,-0.03 -0.236078,0.35599 -0.236077,0.356 -0.236078,0.35599 -0.236078,0.35599 -1.049465,1.79092 -0.649079,1.72888 -0.331118,1.97863 -0.09558,2.54013 0.02499,2.04262 0.159992,1.6355 0.409025,1.94618 0.772089,2.97466 1.079093,4.15763 0.68232,2.9582 0.408012,2.3556 0.256167,2.34984 -0.07773,5.97887 -1.374372,5.08842 -2.702975,4.27133 -4.063536,3.52762 -6.501482,3.48089 -6.4002,1.73912 -6.124898,-0.0264 -5.675579,-1.81579 -1.894505,-1.05849 -1.858243,-1.31598 -2.188759,-1.86145 -2.88605,-2.69488 -1.80645,-1.69143 -1.717941,-1.54717 -1.435249,-1.23178 -0.95837,-0.74525 -1.567797,-0.93574 -1.523568,-0.65993 -1.424514,-0.36509 -1.270638,-0.0512 -1.851165,0.47063 -1.788684,0.98269 -1.5539332,1.37332 -1.146913,1.64253 -0.4304084,1.3006 -0.063689,1.38532 0.2911188,1.32793 0.6340143,1.12841 0.7189687,0.76732 0.7099865,0.5562 0.635045,0.30296 0.494145,0.008 0.194954,-0.12913 0.06522,-0.25674 -0.06439,-0.48749 -0.19389,-0.82137 -0.19771,-1.67982 0.414605,-1.18804 1.065222,-0.74632 1.75414,-0.35467 0.815285,-0.0383 0.646622,0.0548 0.592157,0.16833 0.651886,0.30247 1.056842,0.67445 0.698055,0.77958 0.407454,0.99411 0.18504,1.31805 0.01713,0.73125 -0.03294,0.74116 -0.07629,0.6645 -0.112912,0.50127 -0.548148,1.0254 -0.920982,1.08552 -1.144418,0.99515 -1.218455,0.75426 -1.439349,0.47119 -1.736699,0.24175 -1.753997,-0.007 -1.4912412,-0.27373 h 1.1e-5 1.1e-5 l 1.1e-5,0 z m 28.8518622,-13.08615 -1.818152,-0.86591 -1.49567,-1.24086 -1.196336,-1.64059 -0.92015,-2.06508 -0.303771,-1.00295 -0.186806,-0.98955 -0.09421,-1.1628 -0.02599,-1.52271 0.01903,-1.64196 0.09723,-1.04791 0.235624,-0.7854 0.434212,-0.85443 1.248118,-1.7036 1.648673,-1.32831 2.047695,-0.95208 2.445184,-0.57491 0.869192,-0.12771 0.978041,-0.14496 0.967102,-0.1444 0.836375,-0.12601 2.040157,-0.4911 1.927134,-0.83716 1.813539,-1.18291 1.699375,-1.52837 0.784827,-0.85523 0.761947,-0.90433 0.651992,-0.84566 0.454962,-0.67923 0.323856,-0.52762 0.295021,-0.43286 0.233629,-0.29338 0.139682,-0.10918 0.170343,0.81233 0.01572,1.90141 -0.118161,2.16685 -0.231305,1.60866 -0.338867,1.12055 -0.376402,0.87349 -0.481947,0.75549 -0.655505,0.76657 -0.874676,0.80679 -1.0529,0.54813 -1.656247,0.44535 -2.68472,0.49849 -5.187974,1.11924 -3.144155,1.37399 -1.553301,1.94917 -0.415408,2.8448 0.168341,2.27883 0.524989,1.75645 0.917433,1.31015 1.345675,0.93993 1.220645,0.42613 1.345082,0.18166 1.293384,-0.0702 1.065553,-0.3296 0.822096,-0.56259 0.689423,-0.74352 0.510318,-0.86229 0.284779,-0.9189 0.06936,-0.89731 -0.182789,-0.48843 -0.459069,-0.10173 -0.759482,0.26277 -0.771251,0.3264 -0.540357,0.082 -0.444705,-0.17525 -0.484295,-0.44528 -0.467659,-0.80136 -0.16608,-0.99194 0.137544,-1.03705 0.443215,-0.93669 1.15035,-0.99364 1.457036,-0.39112 1.529547,0.22447 1.367887,0.85312 0.66429,0.85247 0.536428,1.09251 0.358542,1.20418 0.130631,1.18748 -0.135234,1.16417 -0.364104,1.2592 -0.530575,1.18382 -0.634649,0.93807 -2.00658,1.46653 -2.718859,0.9298 -2.960718,0.29189 -2.732154,-0.4472 h -10e-7 l -10e-7,0 h -2e-6 z m -18.970192,-14.46515 -5.336447,-2.66558 -3.318753,-4.3812 -0.9992797,-5.41238 1.6219737,-5.75909 2.693168,-3.37463 3.703822,-2.30498 4.293162,-1.05815 4.461185,0.36587 1.016694,0.34724 1.602498,0.64454 1.968393,0.84984 2.114382,0.96308 3.956007,1.79904 2.839011,1.14166 2.144306,0.63484 1.871892,0.27856 2.138273,-0.0367 1.863521,-0.74078 2.146649,-1.79801 2.987659,-3.20842 1.61393,-1.64021 1.483414,-1.14055 1.392787,-0.66596 1.34205,-0.21642 h 0.25875 0.25875 0.25875 0.25875 l -0.336833,0.30284 -0.336832,0.30284 -0.336833,0.30284 -0.336832,0.30284 -0.668476,0.66672 -0.588469,0.7358 -0.536913,0.84482 -0.513811,0.99381 -1.834819,3.83975 -1.155727,2.24424 -0.843575,1.29905 -0.898362,1.00416 -2.254422,1.79368 -2.505074,0.98797 -2.814813,0.19538 -3.183641,-0.58404 -1.955045,-0.67775 -2.131721,-0.93967 -2.114866,-1.10826 -1.904477,-1.18351 -1.705924,-1.06123 -1.526844,-0.67401 -1.545477,-0.35288 -1.76182,-0.0978 -3.044253,0.3138 -2.636638,0.87543 -2.101232,1.37633 -1.438032,1.81651 -0.39494,0.80948 -0.207833,0.65565 -0.0581,0.69109 0.05426,0.91577 0.09838,0.71839 0.158834,0.74172 0.19735,0.67763 0.213929,0.52614 0.966367,1.37191 1.295547,1.1122 1.461969,0.74299 1.465633,0.26428 0.807352,-0.16545 0.941361,-0.4104 0.8613,-0.54215 0.567167,-0.5607 0.257838,-0.52452 -6.91e-4,-0.38388 -0.256135,-0.23578 -0.508491,-0.0802 -0.766531,-0.0931 -0.762845,-0.24426 -0.633905,-0.34277 -0.379714,-0.38862 -0.204896,-0.67736 -0.03869,-0.85238 0.120785,-0.88486 0.273522,-0.77481 1.041135,-1.15267 1.477284,-0.6112 1.622209,-0.0113 1.475912,0.64718 1.25392,1.51506 0.823024,2.11889 0.306087,2.3799 -0.29689,2.2981 -0.956426,2.03216 -1.516008,1.50232 -2.058807,0.96089 -2.584827,0.40791 -1.027661,0.0148 -0.99173,-0.0462 -0.91678,-0.10411 z m 80.530148,-10.31985 -5.671517,-1.50402 -5.104776,-2.50983 -4.106827,-3.24619 -2.67767,-3.71312 -0.413887,-0.95336 -0.246884,-0.81548 -0.119167,-0.85709 -0.03074,-1.07823 0.02956,-0.93136 0.08762,-0.81795 0.145272,-0.7016 0.202512,-0.58235 0.116092,-0.26222 0.116093,-0.26222 0.116093,-0.26222 0.116092,-0.26222 0.272169,0.55988 0.272169,0.55988 0.272169,0.55987 0.272169,0.55988 1.769517,2.83225 2.316899,2.27789 2.939919,1.78193 3.638575,1.3444 1.215697,0.30433 1.204813,0.18534 1.449766,0.0932 1.950557,0.0279 2.071399,-0.0177 1.41845,-0.0975 1.18527,-0.23014 1.3719,-0.41568 2.12753,-0.85456 2.01822,-1.12274 1.85839,-1.35857 1.64806,-1.56207 2.34566,-3.26916 1.12028,-3.71926 -0.0331,-4.72865 -1.11458,-6.29732 -0.91709,-4.40614 -0.48846,-3.27217 -0.0974,-2.5088 0.25616,-2.11602 0.53769,-1.99525 0.86706,-1.95341 1.40068,-2.29419 2.13858,-3.01757 2.08729,-2.9571 1.46891,-2.37399 0.94885,-1.96745 0.52713,-1.73746 0.14073,-2.07884 -0.45022,-2.02002 -1.03836,-1.95365 -1.62366,-1.87974 -1.23557,-1.05756 -1.44329,-1.04506 -1.40692,-0.86869 -1.12647,-0.52842 -3.3615,-0.009 -2.59331,1.83899 -1.21145,2.91915 0.78413,3.23183 0.80366,1.05843 0.85445,0.71889 0.90833,0.38129 0.9653,0.0456 0.74591,-0.18461 0.65035,-0.32576 0.45929,-0.40409 0.17276,-0.41963 -0.0631,-0.14806 -0.17071,-0.18896 -0.25224,-0.20556 -0.3077,-0.19786 -0.70483,-0.74762 -0.10256,-0.93333 0.45664,-0.89649 0.97277,-0.6371 0.73907,0.015 0.95659,0.36585 0.95195,0.60386 0.72517,0.729 0.50945,1.07667 0.1651,1.19971 -0.17829,1.14583 -0.52066,0.91506 -1.47035,1.08999 -1.92091,0.74516 -2.10571,0.32941 -2.02476,-0.15726 -2.10733,-0.95744 -1.73776,-1.73881 -1.22755,-2.32733 -0.5767,-2.72299 -0.0427,-0.97997 0.058,-0.7408 0.18945,-0.67756 0.35161,-0.79027 1.38857,-2.11404 1.81661,-1.59431 2.18674,-1.0365 2.49895,-0.44065 2.67519,0.16424 2.5846,0.76601 2.50959,1.37433 2.45012,1.98917 2.08957,2.43477 1.5095,2.78046 0.91575,3.09297 0.30829,3.37233 -0.28268,3.28765 -0.84488,3.06968 -1.40231,2.83919 -1.95499,2.5962 -1.7932,2.51396 -0.72258,2.83927 0.30207,3.90149 1.28075,5.70059 1.40601,5.88519 0.8032,4.47774 0.26016,3.51965 -0.22316,3.0109 -3.01773,7.79778 -5.88807,5.75396 -7.98444,3.21003 z m -56.620833,-14.5782 -3.793276,-1.22631 -3.436967,-2.08016 -2.921515,-2.81158 -2.246924,-3.42056 -1.036129,-2.76162 -0.5507,-3.03806 -0.03442,-2.99637 0.512701,-2.63653 1.109829,-2.48466 1.696096,-2.39833 2.482324,-2.54876 3.468512,-2.93592 2.474428,-2.06941 1.782965,-1.7569 1.285631,-1.66058 0.982427,-1.78048 0.388239,-0.9128 0.223566,-0.82751 0.102304,-0.98349 0.02445,-1.38073 -0.02322,-1.45175 -0.12263,-1.00466 -0.301506,-0.91776 -0.55985,-1.19103 -1.042428,-1.7632 -1.306413,-1.68842 -1.428014,-1.45021 -1.407235,-1.04857 -0.71437,-0.37622 -0.67949,-0.21611 -0.84906,-0.098 -1.223079,-0.022 -1.170567,0.0271 -0.861394,0.0934 -0.691753,0.18487 -0.661646,0.30146 -1.250824,0.78842 -1.091277,0.94912 -0.92357,1.10151 -0.747703,1.24559 -0.407824,0.88963 -0.24439,0.76833 -0.118473,0.81025 -0.03008,1.0154 0.131275,1.49447 0.362986,1.40279 0.554739,1.19785 0.706533,0.87963 1.21607,0.73044 1.496508,0.43889 1.443093,0.0875 1.055819,-0.32358 0.210879,-0.20852 -0.02028,-0.23234 -0.301375,-0.34593 -0.632402,-0.54929 -0.581183,-0.52296 -0.368521,-0.43611 -0.193506,-0.40563 -0.05614,-0.43155 0.526402,-1.70334 1.349086,-1.09623 1.826592,-0.33371 1.958919,0.58425 1.480612,1.4682 0.534538,1.96949 -0.419772,2.1735 -1.382317,2.08024 -3.704273,2.21702 -4.06829,-0.0159 -3.701373,-2.05413 -2.603524,-3.8976 -0.854676,-3.54521 0.05198,-3.56151 0.926718,-3.35236 1.769545,-2.91776 1.856298,-1.70208 2.339238,-1.30162 2.659708,-0.83182 2.817707,-0.29268 5.750628,1.06725 4.350973,3.05846 2.757724,4.8347 0.970883,6.39598 -0.310866,3.58814 -0.941533,3.06887 -1.564681,2.53278 -2.180307,1.97987 -2.344352,1.87035 -1.997164,2.13797 -1.561147,2.29492 -1.036302,2.34121 -0.552074,4.00775 0.514156,4.47164 1.429877,4.25955 2.19509,3.37149 2.449611,1.82911 3.104415,1.00345 3.669361,0.16232 4.144448,-0.69428 0.66217,-0.15898 0.582745,-0.1167 0.440316,-0.0633 0.234884,0.001 -0.290054,0.52859 -1.118105,1.10382 -1.463702,1.24089 -1.326846,0.93982 -1.631662,0.82968 -1.711142,0.63138 -1.747047,0.41984 -1.739378,0.19505 -0.876835,0.0274 -0.817421,0.003 -0.666614,-0.02 -0.424415,-0.0421 0,0 v 0 -1e-5 z"
       id="path61"
       inkscape:connector-curvature="0"
       sodipodi:nodetypes="cccccccccccccccccccccccccccccccccccccccccccccccccccccccccccccccccccccccccccccccccccccccccccccccccccccccccccccccccccccccccccccccccccccccccccccccccccccccccccccccccccccccccccccccccccccccccccccccccccccccccccccccccccccccccccccccccccccccccccccccccccccccccccccccccccccccccccccccccccccccccccccccccccccccccccccccccccccccccccccccccccccccccccccccccccccccccccccccccccccccccccccccccccccccccccccccccccccccccccccccccccccccccccccccccccccccccccccccccccccccccccccccccccccccccccccccccccccccccccccccccccccccccccccccccccccccccccccccccccccccccccccccccccccccccccccccccccccccccccccccccccccccccccccccccccccccccccccccccccccccccccccccccccccccccccccccccccccccccccccccccccccccccccccccccccccccccccccccccccccccccc" />
    <g
       id="g227"
       transform="matrix(0.50023436,0.23894967,-0.23400574,0.50405097,307.75318,-339.23395)">
      <g
         id="g168"
         inkscape:label="0" />
      <g
         id="g196"
         inkscape:label="Layer_1">
        <path
           id="path170"
           style="fill:none;stroke:#000000"
           d="m 19.560382,1021.5578 0.20578,0.2767 0.501815,0.9993 -0.324196,0.6545 -0.46066,-0.2022 -3.31849,-1.3762 -0.657056,0.023 0.93721,1.473 -1.157431,-0.046 -1.554909,-0.4722 -2.020264,-0.3065 0.213003,0.1568 0.774747,0.839 -0.02706,0.6856 -1.241544,-0.1841 -2.874437,-0.4715 -1.135763,0.072 -0.337553,0.074 0.662827,0.657 0.662472,0.6571 -0.206865,0.045 -3.387803,0.1557 -1.465375,-0.034 0.121663,0.1576 1.691372,3.3163 0.137908,0.4375 -0.929624,-0.034 -1.127464,-0.095 0.06751,0.4676 2.271897,2.2772 0.520226,0.5759 0.037908,0.2649 -1.0141,0.192 -1.268621,-0.212 2.688147,2.8936 0.639005,0.6072 -0.258848,0.2052 -1.533612,0.092 -0.295672,-0.045 0.206865,0.2169 3.075881,2.4228 0.314449,0.7405 -1.379092,0.1311 -0.345857,-0.04 1.603645,1.2115 1.905102,1.0365 1.302916,0.7387 -0.396397,0.2884 -0.996775,0.2305 -0.600374,0.03 0.28701,0.1796 3.7907,1.4011 0.949841,0.3175 -0.07906,0.2664 -1.092802,0.5917 -0.432865,0.11 0.346942,0.1297 3.635822,0.6563 1.656359,0.3364 -1.031792,0.9975 -0.41373,0.1916 0.264268,0.034 0.412283,0.061 3.134728,-0.113 5.637313,-1.6019 3.078051,-2.8643 0.660665,-1.6665 0.04044,-0.2169 -1.203636,-1.2062 -5.791831,-4.8734 -11.275711,-6.9406 -1.122769,-0.592 2.731831,0.9159 12.243965,5.8174 5.81277,4.0528 0.667162,0.5098 1.061397,-0.5495 2.584536,-4.947 -3.226428,-7.633 -1.602565,-1.717 -0.109028,0.3696 -0.522032,1.1387 -0.438641,-0.4734 -2.783819,-2.9466 -0.226718,0.034 0.05523,0.5946 -0.544056,1.0827 -0.433224,-0.2574 -1.714118,-1.7293 -1.04479,-0.6513 0.100003,0.2151 -0.01659,1.2675 -0.881608,-0.034 -2.826418,-1.835 z"
           inkscape:connector-curvature="0" />
        <path
           id="path172"
           style="fill:none;stroke:#000000"
           d="m 57.749344,1021.5805 -0.63106,0.2381 -2.693563,1.7838 -0.876556,0.056 -0.05272,-1.2643 -0.118413,-0.1201 -2.432545,2.1668 -0.500735,0.3458 -0.483764,-0.5368 -0.03061,-1.0849 -0.06535,-0.1965 -3.243038,3.4531 -0.09676,0.135 -0.145134,-0.1773 -0.41517,-1.0896 -0.08016,-0.3008 -1.596427,1.6816 -2.571175,4.7611 -0.668609,3.5488 2.972632,4.5478 1.329993,-0.2033 19.503338,-10.3772 1.270068,-0.4098 -1.148402,0.6116 -14.100688,9.1324 -4.107314,3.9791 0.576189,1.5668 3.120646,3.0618 2.657824,0.9607 3.966879,0.7611 2.705118,-0.056 h 3.66e-4 l -0.249449,-0.2354 -0.594236,-0.3326 -0.412645,-0.6203 1.626754,-0.3715 3.57445,-0.6357 0.439718,-0.1565 -0.410116,-0.098 -1.085945,-0.5668 0.729981,-0.5892 2.844469,-0.9303 1.245517,-0.6409 -0.372208,-0.053 -0.757417,-0.091 -0.780526,-0.4592 1.322056,-0.7214 1.917733,-1.0574 1.583792,-1.1885 -0.424917,0.047 -1.419893,-0.1871 -0.211541,-0.2286 0.57871,-0.4289 2.014492,-1.451 1.237214,-1.1848 -0.490987,0.03 -1.531446,-0.2846 0.691355,-0.6755 1.374399,-1.2971 1.319527,-1.5571 -0.289172,0.068 -2.035793,-0.034 0.04331,-0.2861 0.609045,-0.6523 1.849859,-1.7485 0.600734,-0.939 -0.22201,0.023 -2.025672,0.095 0.235729,-0.7159 1.458157,-2.829 0.257764,-0.3564 -0.458135,0.023 -4.3918,-0.124 -0.207231,-0.045 0.661028,-0.6559 0.661028,-0.6564 -0.306142,-0.06 -4.285663,0.4444 -1.075476,-0.2435 0.848757,-1.1653 -0.486293,-0.1077 -2.884906,0.7361 -1.168977,0.1375 0.965,-1.5917 0.118413,-0.1675 -2.106184,0.5661 -2.090301,1.0271 -0.334678,0.1807 -0.222047,-0.1818 -0.153071,-0.4755 0.479074,-1.0213 z"
           inkscape:connector-curvature="0" />
        <path
           id="path174"
           style="fill:none;stroke:#000000"
           d="m 37.655743,1048.8981 -1.594624,0.1281 -7.02796,3.3629 -1.705814,2.4347 0.238632,2.277 0.398207,0.6855 5.784608,3.3445 3.608387,0.534 1.536136,0.089 h 0.478349 l 0.948396,-0.065 1.715203,-0.2623 1.123854,-0.2124 2.705117,-0.9834 2.433272,-1.7307 1.072225,-2.191 -0.616622,-2.1701 -3.088521,-2.9348 -2.446265,-1.3141 -2.632188,-0.7895 z"
           inkscape:connector-curvature="0" />
        <path
           id="path176"
           style="fill:none;stroke:#000000"
           d="m 21.625047,1051.2082 -7.449267,2.1781 -5.040552,5.9099 -1.168256,5.4715 0.035754,1.0795 0.220944,0.1871 1.143349,-0.1357 h 3.66e-4 l 0.697852,-0.2744 1.597149,-0.856 0.975836,-0.592 2.72064,-1.8928 1.508338,-1.1831 4.4066,-3.8503 2.484533,-2.6022 0.701821,-0.9123 0.835759,-1.6982 -1.074395,-0.5654 z"
           inkscape:connector-curvature="0" />
        <path
           id="path178"
           style="fill:none;stroke:#000000"
           d="m 54.220743,1051.2509 -2.797175,0.302 -0.635754,0.1871 0.778718,2.0849 0.49279,0.5917 0.71229,0.7982 0.784857,0.8531 3.830411,3.7055 2.483452,2.0026 1.190642,0.9249 2.179472,1.5665 0.975836,0.6234 1.623141,0.8777 0.334677,0.1568 1.219884,0.4094 0.525646,-0.1894 0.06569,-1.5527 -0.219137,-2.2795 -4.673756,-7.9507 -2.374062,-1.5874 -3.747737,-1.3102 z"
           inkscape:connector-curvature="0" />
        <path
           id="path180"
           style="fill:none;stroke:#000000"
           d="m 51.31093,1062.3212 -0.610121,0.011 -4.022117,0.9559 -2.151311,1.4427 -1.26754,1.5458 -0.852725,1.4163 -0.813377,2.5643 -0.236826,2.1932 0.08485,1.2199 0.505428,3.0311 2.058531,4.2738 3.697199,3.7213 2.820279,1.5441 2.720999,0.6448 0.91663,0.1172 1.331078,0.01 2.454569,-0.5931 0.709765,-0.299 2.080913,-1.3394 3.245201,-6.142 0.127446,-2.0109 -0.1567,-2.1 -0.987027,-3.3936 -1.5513,-2.817 -8.732689,-5.8352 z"
           inkscape:connector-curvature="0" />
        <path
           id="path182"
           style="fill:none;stroke:#000000"
           d="m 25.857997,1062.7624 -1.892825,0.1327 -7.159008,3.9809 -2.528216,3.5146 -1.605816,6.5914 0.385569,3.0633 7.847474,7.2868 2.823531,0.1194 3.548821,-0.9162 4.469775,-3.1795 3.930777,-7.6486 0.235744,-3.0434 -1.129266,-4.3921 -5.407348,-4.924 z"
           inkscape:connector-curvature="0" />
        <path
           id="path184"
           style="fill:none;stroke:#000000"
           d="m 68.818915,1069.056 -0.69027,0.2597 -0.9419,2.7571 -0.157757,2.8686 0.222387,3.5785 0.279421,1.9224 0.170418,0.917 0.92168,3.8741 0.35777,1.0647 0.848031,1.9169 0.417702,0.6856 0.943703,1.0437 0.894603,0.1308 2.174064,-2.6012 1.331784,-10.7592 -4.930802,-6.655 z"
           inkscape:connector-curvature="0" />
        <path
           id="path186"
           style="fill:none;stroke:#000000"
           d="m 7.19006,1069.6828 -0.15524,0.011 -1.258515,0.5744 -4.539814,5.23 L 0.718428,1076.8 0,1080.7368 l 0.095308,2.0112 1.492815,4.5424 1.784157,2.526 1.625669,0.4784 1.084142,-1.1055 0.290982,-0.4375 0.916267,-1.9001 0.233942,-0.7032 0.940815,-3.3814 0.141158,-0.761 0.124913,-0.5888 0.154878,-0.8578 0.203614,-6.3976 -1.151289,-3.9116 -0.149465,-0.189 -0.235745,-0.2298 z"
           inkscape:connector-curvature="0" />
        <path
           id="path188"
           style="fill:none;stroke:#000000"
           d="m 38.585726,1085.5582 -7.788986,2.5817 -3.103321,3.5113 -0.36824,0.666 -0.488099,1.1239 -0.568604,3.356 0.08303,1.6856 0.75092,2.5438 3.665065,4.5665 2.696092,1.4668 3.159639,0.8242 2.918121,0.061 7.908846,-3.7629 2.432546,-3.807 0.693516,-3.5784 -0.369335,-2.9965 -0.924208,-2.1101 -0.464628,-0.7787 -1.974777,-2.2553 -0.7798,-0.626 -3.525354,-1.7903 -0.887384,-0.2381 -1.290282,-0.2948 z"
           inkscape:connector-curvature="0" />
        <path
           id="path190"
           style="fill:none;stroke:#000000"
           d="m 65.91885,1089.5305 -1.347685,0.1924 -2.514501,0.9585 -1.611228,1.0466 -2.284169,1.9925 -1.741916,1.9498 -2.452044,3.7041 -0.930346,2.0816 -0.23176,0.6238 -0.829981,3.7081 0.331767,3.273 1.54769,2.0679 1.510144,0.5715 2.496446,-0.054 8.904178,-4.5275 3.755324,-7.8374 0.10507,-2.1293 -0.160667,-2.3296 -0.969699,-3.2239 -1.735423,-1.6943 z"
           inkscape:connector-curvature="0" />
        <path
           id="path192"
           style="fill:none;stroke:#000000"
           d="m 10.51324,1091.1295 -0.901104,0.1088 -1.380899,0.7347 -0.331775,0.3012 -1.413029,4.7633 1.762496,7.1894 4.26833,4.8402 2.782371,1.5762 4.22934,1.1188 1.778744,-0.062 0.739366,-0.2415 1.649855,-1.4383 0.566804,-1.0433 0.153793,-3.7236 -0.305061,-1.3282 -1.055263,-2.8004 -0.375821,-0.7365 -2.586342,-3.7975 -1.065728,-1.1831 -1.659243,-1.5665 -0.532502,-0.4151 -1.638667,-1.0571 -4.108036,-1.2246 z"
           inkscape:connector-curvature="0" />
        <path
           id="path194"
           style="fill:none;stroke:#000000"
           d="m 39.484305,1111.3014 -2.535799,0.1009 -2.572985,0.2986 -1.153455,0.2083 -2.335434,0.6325 -0.888106,0.3424 -2.897178,2.0354 -0.19892,1.5932 4.549561,4.2524 5.407706,1.756 3.231122,-0.023 8.569149,-4.3701 1.517363,-1.9845 0.06788,-1.3238 -0.544781,-0.7376 -1.472235,-1.0755 -1.076557,-0.4022 -2.72281,-0.7877 -1.485592,-0.237 -1.022767,-0.1153 -1.085586,-0.096 z"
           inkscape:connector-curvature="0" />
      </g>
    </g>
  </g>
</svg>
