  0
SECTION
  2
HEADER
  9
$ACADVER
  1
AC1014
  9
$HANDSEED
  5
FFFF
  9
$MEASUREMENT
 70
     1
  0
ENDSEC
  0
SECTION
  2
TABLES
  0
TABLE
  2
VPORT
  5
8
330
0
100
AcDbSymbolTable
 70
     4
  0
VPORT
  5
2E
330
8
100
AcDbSymbolTableRecord
100
AcDbViewportTableRecord
  2
*ACTIVE
 70
     0
 10
0.0
 20
0.0
 11
1.0
 21
1.0
 12
210.0
 22
148.5
 13
0.0
 23
0.0
 14
10.0
 24
10.0
 15
10.0
 25
10.0
 16
0.0
 26
0.0
 36
1.0
 17
0.0
 27
0.0
 37
0.0
 40
341.0
 41
1.24
 42
50.0
 43
0.0
 44
0.0
 50
0.0
 51
0.0
 71
     0
 72
   100
 73
     1
 74
     3
 75
     0
 76
     0
 77
     0
 78
     0
  0
ENDTAB
  0
TABLE
  2
LTYPE
  5
5
330
0
100
AcDbSymbolTable
 70
     1
  0
LTYPE
  5
14
330
5
100
AcDbSymbolTableRecord
100
AcDbLinetypeTableRecord
  2
BYBLOCK
 70
     0
  3

 72
    65
 73
     0
 40
0.0
  0
LTYPE
  5
15
330
5
100
AcDbSymbolTableRecord
100
AcDbLinetypeTableRecord
  2
BYLAYER
 70
     0
  3

 72
    65
 73
     0
 40
0.0
  0
LTYPE
  5
16
330
5
100
AcDbSymbolTableRecord
100
AcDbLinetypeTableRecord
  2
CONTINUOUS
 70
     0
  3
Solid line
 72
    65
 73
     0
 40
0.0
  0
ENDTAB
  0
TABLE
  2
LAYER
  5
2
100
AcDbSymbolTable
 70
1
  0
LAYER
  5
50
100
AcDbSymbolTableRecord
100
AcDbLayerTableRecord
  2
0
 70
0
  6
CONTINUOUS
  0
ENDTAB
  0
TABLE
  2
STYLE
  5
3
330
0
100
AcDbSymbolTable
 70
     1
  0
STYLE
  5
11
330
3
100
AcDbSymbolTableRecord
100
AcDbTextStyleTableRecord
  2
STANDARD
 70
     0
 40
0.0
 41
1.0
 50
0.0
 71
     0
 42
2.5
  3
txt
  4

  0
ENDTAB
  0
TABLE
  2
VIEW
  5
6
330
0
100
AcDbSymbolTable
 70
     0
  0
ENDTAB
  0
TABLE
  2
UCS
  5
7
330
0
100
AcDbSymbolTable
 70
     0
  0
ENDTAB
  0
TABLE
  2
APPID
  5
9
330
0
100
AcDbSymbolTable
 70
     2
  0
APPID
  5
12
330
9
100
AcDbSymbolTableRecord
100
AcDbRegAppTableRecord
  2
ACAD
 70
     0
  0
ENDTAB
  0
TABLE
  2
DIMSTYLE
  5
A
330
0
100
AcDbSymbolTable
 70
     1
  0
DIMSTYLE
105
27
330
A
100
AcDbSymbolTableRecord
100
AcDbDimStyleTableRecord
  2
ISO-25
 70
     0
  3

  4

  5

  6

  7

 40
1.0
 41
2.5
 42
0.625
 43
3.75
 44
1.25
 45
0.0
 46
0.0
 47
0.0
 48
0.0
140
2.5
141
2.5
142
0.0
143
0.03937007874016
144
1.0
145
0.0
146
1.0
147
0.625
 71
     0
 72
     0
 73
     0
 74
     0
 75
     0
 76
     0
 77
     1
 78
     8
170
     0
171
     3
172
     1
173
     0
174
     0
175
     0
176
     0
177
     0
178
     0
270
     2
271
     2
272
     2
273
     2
274
     3
340
11
275
     0
280
     0
281
     0
282
     0
283
     0
284
     8
285
     0
286
     0
287
     3
288
     0
  0
ENDTAB
  0
TABLE
  2
BLOCK_RECORD
  5
1
330
0
100
AcDbSymbolTable
 70
     1
  0
BLOCK_RECORD
  5
1F
330
1
100
AcDbSymbolTableRecord
100
AcDbBlockTableRecord
  2
*MODEL_SPACE
  0
BLOCK_RECORD
  5
1B
330
1
100
AcDbSymbolTableRecord
100
AcDbBlockTableRecord
  2
*PAPER_SPACE
  0
ENDTAB
  0
ENDSEC
  0
SECTION
  2
BLOCKS
  0
BLOCK
  5
20
330
1F
100
AcDbEntity
  8
0
100
AcDbBlockBegin
  2
*MODEL_SPACE
 70
     0
 10
0.0
 20
0.0
 30
0.0
  3
*MODEL_SPACE
  1

  0
ENDBLK
  5
21
330
1F
100
AcDbEntity
  8
0
100
AcDbBlockEnd
  0
BLOCK
  5
1C
330
1B
100
AcDbEntity
 67
     1
  8
0
100
AcDbBlockBegin
  2
*PAPER_SPACE
  1

  0
ENDBLK
  5
1D
330
1B
100
AcDbEntity
 67
     1
  8
0
100
AcDbBlockEnd
  0
ENDSEC
  0
SECTION
  2
ENTITIES
  0
LWPOLYLINE
  5
100
100
AcDbEntity
  8
0
 62
7
100
AcDbPolyline
 90
112
 70
1
 10
5.441429
 20
13.413235
 30
0.0
 10
4.989125
 20
13.479994
 30
0.0
 10
4.539709
 20
13.584172
 30
0.0
 10
4.096490
 20
13.726455
 30
0.0
 10
3.662774
 20
13.907532
 30
0.0
 10
3.241869
 20
14.128087
 30
0.0
 10
2.837083
 20
14.388808
 30
0.0
 10
2.451722
 20
14.690383
 30
0.0
 10
2.089094
 20
15.033496
 30
0.0
 10
1.752506
 20
15.418836
 30
0.0
 10
1.445266
 20
15.847089
 30
0.0
 10
1.170682
 20
16.318942
 30
0.0
 10
0.932060
 20
16.835081
 30
0.0
 10
0.732707
 20
17.396194
 30
0.0
 10
0.575933
 20
18.002967
 30
0.0
 10
0.465043
 20
18.656087
 30
0.0
 10
0.403344
 20
19.356240
 30
0.0
 10
1.085315
 20
19.330477
 30
0.0
 10
1.726339
 20
19.254087
 30
0.0
 10
2.326318
 20
19.128420
 30
0.0
 10
2.885155
 20
18.954826
 30
0.0
 10
3.402751
 20
18.734653
 30
0.0
 10
3.879007
 20
18.469253
 30
0.0
 10
4.313827
 20
18.159973
 30
0.0
 10
4.707112
 20
17.808164
 30
0.0
 10
5.058763
 20
17.415175
 30
0.0
 10
5.368683
 20
16.982356
 30
0.0
 10
5.636773
 20
16.511056
 30
0.0
 10
5.862936
 20
16.002625
 30
0.0
 10
6.047074
 20
15.458413
 30
0.0
 10
6.189087
 20
14.879768
 30
0.0
 10
6.288878
 20
14.268041
 30
0.0
 10
6.346350
 20
13.624581
 30
0.0
 10
6.508347
 20
14.360983
 30
0.0
 10
6.722875
 20
14.994636
 30
0.0
 10
6.981242
 20
15.533162
 30
0.0
 10
7.274758
 20
15.984184
 30
0.0
 10
7.594734
 20
16.355322
 30
0.0
 10
7.932478
 20
16.654200
 30
0.0
 10
8.279300
 20
16.888438
 30
0.0
 10
8.626511
 20
17.065660
 30
0.0
 10
8.965420
 20
17.193487
 30
0.0
 10
9.287335
 20
17.279542
 30
0.0
 10
9.583568
 20
17.331445
 30
0.0
 10
9.845428
 20
17.356820
 30
0.0
 10
10.064224
 20
17.363288
 30
0.0
 10
10.231267
 20
17.358470
 30
0.0
 10
10.337865
 20
17.349991
 30
0.0
 10
10.375329
 20
17.345471
 30
0.0
 10
10.380527
 20
16.908687
 30
0.0
 10
10.338769
 20
16.494515
 30
0.0
 10
10.252774
 20
16.103524
 30
0.0
 10
10.125262
 20
15.736279
 30
0.0
 10
9.958951
 20
15.393348
 30
0.0
 10
9.756560
 20
15.075298
 30
0.0
 10
9.520807
 20
14.782695
 30
0.0
 10
9.254411
 20
14.516106
 30
0.0
 10
8.960092
 20
14.276099
 30
0.0
 10
8.640566
 20
14.063239
 30
0.0
 10
8.298554
 20
13.878095
 30
0.0
 10
7.936774
 20
13.721231
 30
0.0
 10
7.557945
 20
13.593217
 30
0.0
 10
7.164786
 20
13.494618
 30
0.0
 10
6.760014
 20
13.426000
 30
0.0
 10
6.346350
 20
13.387933
 30
0.0
 10
6.194260
 20
13.656081
 30
0.0
 10
5.979110
 20
13.961551
 30
0.0
 10
5.710954
 20
14.296808
 30
0.0
 10
5.399848
 20
14.654314
 30
0.0
 10
5.055848
 20
15.026532
 30
0.0
 10
4.689007
 20
15.405925
 30
0.0
 10
4.309382
 20
15.784956
 30
0.0
 10
3.927027
 20
16.156089
 30
0.0
 10
3.551998
 20
16.511785
 30
0.0
 10
3.194349
 20
16.844509
 30
0.0
 10
2.864136
 20
17.146722
 30
0.0
 10
2.571414
 20
17.410889
 30
0.0
 10
2.326238
 20
17.629472
 30
0.0
 10
2.138663
 20
17.794934
 30
0.0
 10
2.018744
 20
17.899739
 30
0.0
 10
1.976537
 20
17.936348
 30
0.0
 10
1.974935
 20
17.937487
 30
0.0
 10
1.973273
 20
17.938274
 30
0.0
 10
1.971580
 20
17.938731
 30
0.0
 10
1.969884
 20
17.938882
 30
0.0
 10
1.968212
 20
17.938744
 30
0.0
 10
1.966605
 20
17.938340
 30
0.0
 10
1.965084
 20
17.937694
 30
0.0
 10
1.963670
 20
17.936824
 30
0.0
 10
1.962405
 20
17.935753
 30
0.0
 10
1.961318
 20
17.934503
 30
0.0
 10
1.960440
 20
17.933095
 30
0.0
 10
1.959800
 20
17.931551
 30
0.0
 10
1.959413
 20
17.929892
 30
0.0
 10
1.959335
 20
17.928139
 30
0.0
 10
1.959573
 20
17.926315
 30
0.0
 10
1.960169
 20
17.924440
 30
0.0
 10
2.000720
 20
17.888755
 30
0.0
 10
2.115187
 20
17.786517
 30
0.0
 10
2.292789
 20
17.624951
 30
0.0
 10
2.522744
 20
17.411283
 30
0.0
 10
2.794271
 20
17.152737
 30
0.0
 10
3.096589
 20
16.856539
 30
0.0
 10
3.418918
 20
16.529914
 30
0.0
 10
3.750475
 20
16.180087
 30
0.0
 10
4.080480
 20
15.814284
 30
0.0
 10
4.398151
 20
15.439729
 30
0.0
 10
4.692708
 20
15.063648
 30
0.0
 10
4.953369
 20
14.693266
 30
0.0
 10
5.169353
 20
14.335808
 30
0.0
 10
5.329879
 20
13.998500
 30
0.0
 10
5.424160
 20
13.688569
 30
0.0
  0
LWPOLYLINE
  5
101
100
AcDbEntity
  8
0
 62
7
100
AcDbPolyline
 90
81
 70
0
 10
3.581177
 20
2.400725
 30
0.0
 10
3.580522
 20
2.677226
 30
0.0
 10
3.615449
 20
2.948997
 30
0.0
 10
3.681061
 20
3.216642
 30
0.0
 10
3.772455
 20
3.480763
 30
0.0
 10
3.884723
 20
3.741965
 30
0.0
 10
4.012962
 20
4.000849
 30
0.0
 10
4.152266
 20
4.258022
 30
0.0
 10
4.297731
 20
4.514087
 30
0.0
 10
4.444452
 20
4.769644
 30
0.0
 10
4.587524
 20
5.025300
 30
0.0
 10
4.722042
 20
5.281657
 30
0.0
 10
4.843101
 20
5.539318
 30
0.0
 10
4.945796
 20
5.798887
 30
0.0
 10
5.025223
 20
6.060967
 30
0.0
 10
5.076475
 20
6.326163
 30
0.0
 10
5.094642
 20
6.595076
 30
0.0
 10
4.993523
 20
7.223565
 30
0.0
 10
4.799242
 20
7.759098
 30
0.0
 10
4.525552
 20
8.203639
 30
0.0
 10
4.186210
 20
8.559148
 30
0.0
 10
3.794971
 20
8.827588
 30
0.0
 10
3.365589
 20
9.010922
 30
0.0
 10
2.911818
 20
9.111111
 30
0.0
 10
2.447415
 20
9.130118
 30
0.0
 10
1.986134
 20
9.069905
 30
0.0
 10
1.541730
 20
8.932434
 30
0.0
 10
1.127958
 20
8.719668
 30
0.0
 10
0.758573
 20
8.433568
 30
0.0
 10
0.447330
 20
8.076096
 30
0.0
 10
0.207983
 20
7.649216
 30
0.0
 10
0.054288
 20
7.154888
 30
0.0
 10
0.000000
 20
6.595076
 30
0.0
 10
0.000000
 20
6.595076
 30
0.0
 10
0.000000
 20
6.595076
 30
0.0
 10
0.000000
 20
6.595076
 30
0.0
 10
0.000000
 20
6.595076
 30
0.0
 10
0.000000
 20
6.595076
 30
0.0
 10
0.000000
 20
6.595076
 30
0.0
 10
0.000000
 20
6.595076
 30
0.0
 10
0.000000
 20
6.595076
 30
0.0
 10
0.000000
 20
6.595076
 30
0.0
 10
0.000000
 20
6.595076
 30
0.0
 10
0.000000
 20
6.595076
 30
0.0
 10
0.000000
 20
6.595076
 30
0.0
 10
0.000000
 20
6.595076
 30
0.0
 10
0.000000
 20
6.595076
 30
0.0
 10
0.000000
 20
6.595076
 30
0.0
 10
0.000000
 20
6.595076
 30
0.0
 10
0.003291
 20
6.447558
 30
0.0
 10
0.013845
 20
6.301027
 30
0.0
 10
0.031562
 20
6.155729
 30
0.0
 10
0.056341
 20
6.011908
 30
0.0
 10
0.088081
 20
5.869810
 30
0.0
 10
0.126680
 20
5.729681
 30
0.0
 10
0.172037
 20
5.591764
 30
0.0
 10
0.224052
 20
5.456305
 30
0.0
 10
0.282623
 20
5.323550
 30
0.0
 10
0.347650
 20
5.193743
 30
0.0
 10
0.419031
 20
5.067129
 30
0.0
 10
0.496665
 20
4.943954
 30
0.0
 10
0.580451
 20
4.824462
 30
0.0
 10
0.670288
 20
4.708900
 30
0.0
 10
0.766075
 20
4.597511
 30
0.0
 10
0.867712
 20
4.490541
 30
0.0
 10
1.041333
 20
4.309511
 30
0.0
 10
1.214954
 20
4.128480
 30
0.0
 10
1.388575
 20
3.947450
 30
0.0
 10
1.562197
 20
3.766418
 30
0.0
 10
1.735818
 20
3.585388
 30
0.0
 10
1.909439
 20
3.404358
 30
0.0
 10
2.083061
 20
3.223328
 30
0.0
 10
2.256682
 20
3.042298
 30
0.0
 10
2.430303
 20
2.861266
 30
0.0
 10
2.603925
 20
2.680236
 30
0.0
 10
2.777546
 20
2.499205
 30
0.0
 10
2.951167
 20
2.318175
 30
0.0
 10
3.124788
 20
2.137143
 30
0.0
 10
3.298410
 20
1.956113
 30
0.0
 10
3.472031
 20
1.775083
 30
0.0
 10
3.645652
 20
1.594053
 30
0.0
  0
LWPOLYLINE
  5
102
100
AcDbEntity
  8
0
 62
7
100
AcDbPolyline
 90
81
 70
0
 10
10.621995
 20
3.531949
 30
0.0
 10
10.347055
 20
3.532089
 30
0.0
 10
10.079698
 20
3.569231
 30
0.0
 10
9.818912
 20
3.638295
 30
0.0
 10
9.563697
 20
3.734194
 30
0.0
 10
9.313036
 20
3.851777
 30
0.0
 10
9.065923
 20
3.985949
 30
0.0
 10
8.821351
 20
4.131598
 30
0.0
 10
8.578311
 20
4.283613
 30
0.0
 10
8.335793
 20
4.436884
 30
0.0
 10
8.092791
 20
4.586302
 30
0.0
 10
7.848295
 20
4.726753
 30
0.0
 10
7.601297
 20
4.853127
 30
0.0
 10
7.350788
 20
4.960315
 30
0.0
 10
7.095760
 20
5.043205
 30
0.0
 10
6.835205
 20
5.096687
 30
0.0
 10
6.568115
 20
5.115650
 30
0.0
 10
5.939626
 20
5.014548
 30
0.0
 10
5.404093
 20
4.820313
 30
0.0
 10
4.959552
 20
4.546697
 30
0.0
 10
4.604043
 20
4.207451
 30
0.0
 10
4.335602
 20
3.816324
 30
0.0
 10
4.152269
 20
3.387068
 30
0.0
 10
4.052079
 20
2.933432
 30
0.0
 10
4.033073
 20
2.469167
 30
0.0
 10
4.093286
 20
2.008026
 30
0.0
 10
4.230756
 20
1.563756
 30
0.0
 10
4.443523
 20
1.150109
 30
0.0
 10
4.729623
 20
0.780837
 30
0.0
 10
5.087095
 20
0.469689
 30
0.0
 10
5.513975
 20
0.230415
 30
0.0
 10
6.008302
 20
0.076768
 30
0.0
 10
6.568115
 20
0.022496
 30
0.0
 10
6.568115
 20
0.022496
 30
0.0
 10
6.568115
 20
0.022496
 30
0.0
 10
6.568115
 20
0.022496
 30
0.0
 10
6.568115
 20
0.022496
 30
0.0
 10
6.568115
 20
0.022496
 30
0.0
 10
6.568115
 20
0.022496
 30
0.0
 10
6.568115
 20
0.022496
 30
0.0
 10
6.568115
 20
0.022496
 30
0.0
 10
6.568115
 20
0.022496
 30
0.0
 10
6.568115
 20
0.022496
 30
0.0
 10
6.568115
 20
0.022496
 30
0.0
 10
6.568115
 20
0.022496
 30
0.0
 10
6.568115
 20
0.022496
 30
0.0
 10
6.568115
 20
0.022496
 30
0.0
 10
6.568115
 20
0.022496
 30
0.0
 10
6.568115
 20
0.022496
 30
0.0
 10
6.715633
 20
0.025771
 30
0.0
 10
6.862164
 20
0.036338
 30
0.0
 10
7.007462
 20
0.054057
 30
0.0
 10
7.151283
 20
0.078835
 30
0.0
 10
7.293380
 20
0.110574
 30
0.0
 10
7.433510
 20
0.149173
 30
0.0
 10
7.571427
 20
0.194531
 30
0.0
 10
7.706886
 20
0.246546
 30
0.0
 10
7.839641
 20
0.305117
 30
0.0
 10
7.969448
 20
0.370143
 30
0.0
 10
8.096062
 20
0.441525
 30
0.0
 10
8.219237
 20
0.519158
 30
0.0
 10
8.338729
 20
0.602943
 30
0.0
 10
8.454291
 20
0.692780
 30
0.0
 10
8.565680
 20
0.788566
 30
0.0
 10
8.672650
 20
0.890203
 30
0.0
 10
8.852310
 20
1.065288
 30
0.0
 10
9.031971
 20
1.240372
 30
0.0
 10
9.211631
 20
1.415456
 30
0.0
 10
9.391291
 20
1.590542
 30
0.0
 10
9.570952
 20
1.765626
 30
0.0
 10
9.750612
 20
1.940710
 30
0.0
 10
9.930272
 20
2.115794
 30
0.0
 10
10.109933
 20
2.290879
 30
0.0
 10
10.289593
 20
2.465963
 30
0.0
 10
10.469253
 20
2.641049
 30
0.0
 10
10.648914
 20
2.816133
 30
0.0
 10
10.828574
 20
2.991217
 30
0.0
 10
11.008234
 20
3.166301
 30
0.0
 10
11.187894
 20
3.341387
 30
0.0
 10
11.367555
 20
3.516471
 30
0.0
 10
11.547215
 20
3.691556
 30
0.0
  0
LWPOLYLINE
  5
103
100
AcDbEntity
  8
0
 62
7
100
AcDbPolyline
 90
81
 70
0
 10
9.610806
 20
10.572767
 30
0.0
 10
9.610943
 20
10.298633
 30
0.0
 10
9.574530
 20
10.033549
 30
0.0
 10
9.506608
 20
9.776296
 30
0.0
 10
9.412220
 20
9.525653
 30
0.0
 10
9.296408
 20
9.280398
 30
0.0
 10
9.164214
 20
9.039311
 30
0.0
 10
9.020679
 20
8.801172
 30
0.0
 10
8.870847
 20
8.564759
 30
0.0
 10
8.719760
 20
8.328852
 30
0.0
 10
8.572458
 20
8.092230
 30
0.0
 10
8.433985
 20
7.853672
 30
0.0
 10
8.309382
 20
7.611958
 30
0.0
 10
8.203692
 20
7.365867
 30
0.0
 10
8.121956
 20
7.114178
 30
0.0
 10
8.069217
 20
6.855670
 30
0.0
 10
8.050517
 20
6.589123
 30
0.0
 10
8.151620
 20
5.960634
 30
0.0
 10
8.345854
 20
5.425100
 30
0.0
 10
8.619470
 20
4.980560
 30
0.0
 10
8.958717
 20
4.625051
 30
0.0
 10
9.349844
 20
4.356610
 30
0.0
 10
9.779100
 20
4.173277
 30
0.0
 10
10.232736
 20
4.073088
 30
0.0
 10
10.697000
 20
4.054080
 30
0.0
 10
11.158142
 20
4.114293
 30
0.0
 10
11.602412
 20
4.251764
 30
0.0
 10
12.016058
 20
4.464530
 30
0.0
 10
12.385331
 20
4.750631
 30
0.0
 10
12.696479
 20
5.108102
 30
0.0
 10
12.935752
 20
5.534983
 30
0.0
 10
13.089400
 20
6.029310
 30
0.0
 10
13.143671
 20
6.589123
 30
0.0
 10
13.143671
 20
6.589123
 30
0.0
 10
13.143671
 20
6.589123
 30
0.0
 10
13.143671
 20
6.589123
 30
0.0
 10
13.143671
 20
6.589123
 30
0.0
 10
13.143671
 20
6.589123
 30
0.0
 10
13.143671
 20
6.589123
 30
0.0
 10
13.143671
 20
6.589123
 30
0.0
 10
13.143671
 20
6.589123
 30
0.0
 10
13.143671
 20
6.589123
 30
0.0
 10
13.143671
 20
6.589123
 30
0.0
 10
13.143671
 20
6.589123
 30
0.0
 10
13.143671
 20
6.589123
 30
0.0
 10
13.143671
 20
6.589123
 30
0.0
 10
13.143671
 20
6.589123
 30
0.0
 10
13.143671
 20
6.589123
 30
0.0
 10
13.143671
 20
6.589123
 30
0.0
 10
13.140382
 20
6.736641
 30
0.0
 10
13.129827
 20
6.883172
 30
0.0
 10
13.112110
 20
7.028470
 30
0.0
 10
13.087331
 20
7.172290
 30
0.0
 10
13.055591
 20
7.314388
 30
0.0
 10
13.016992
 20
7.454518
 30
0.0
 10
12.971634
 20
7.592435
 30
0.0
 10
12.919619
 20
7.727893
 30
0.0
 10
12.861048
 20
7.860649
 30
0.0
 10
12.796021
 20
7.990456
 30
0.0
 10
12.724641
 20
8.117070
 30
0.0
 10
12.647007
 20
8.240245
 30
0.0
 10
12.563220
 20
8.359736
 30
0.0
 10
12.473383
 20
8.475299
 30
0.0
 10
12.377596
 20
8.586688
 30
0.0
 10
12.275960
 20
8.693658
 30
0.0
 10
12.102246
 20
8.868929
 30
0.0
 10
11.928531
 20
9.044199
 30
0.0
 10
11.754817
 20
9.219470
 30
0.0
 10
11.581103
 20
9.394740
 30
0.0
 10
11.407388
 20
9.570011
 30
0.0
 10
11.233674
 20
9.745281
 30
0.0
 10
11.059960
 20
9.920552
 30
0.0
 10
10.886245
 20
10.095823
 30
0.0
 10
10.712531
 20
10.271093
 30
0.0
 10
10.538817
 20
10.446364
 30
0.0
 10
10.365102
 20
10.621634
 30
0.0
 10
10.191388
 20
10.796905
 30
0.0
 10
10.017674
 20
10.972176
 30
0.0
 10
9.843959
 20
11.147446
 30
0.0
 10
9.670245
 20
11.322717
 30
0.0
 10
9.496531
 20
11.497987
 30
0.0
  0
LWPOLYLINE
  5
104
100
AcDbEntity
  8
0
 62
7
100
AcDbPolyline
 90
81
 70
0
 10
2.418013
 20
9.725462
 30
0.0
 10
2.694267
 20
9.724554
 30
0.0
 10
2.965339
 20
9.685168
 30
0.0
 10
3.231895
 20
9.612628
 30
0.0
 10
3.494601
 20
9.512250
 30
0.0
 10
3.754121
 20
9.389350
 30
0.0
 10
4.011122
 20
9.249245
 30
0.0
 10
4.266269
 20
9.097251
 30
0.0
 10
4.520226
 20
8.938686
 30
0.0
 10
4.773661
 20
8.778864
 30
0.0
 10
5.027237
 20
8.623103
 30
0.0
 10
5.281622
 20
8.476719
 30
0.0
 10
5.537480
 20
8.345029
 30
0.0
 10
5.795476
 20
8.233349
 30
0.0
 10
6.056276
 20
8.146995
 30
0.0
 10
6.320546
 20
8.091284
 30
0.0
 10
6.588952
 20
8.071525
 30
0.0
 10
7.217441
 20
8.173364
 30
0.0
 10
7.752974
 20
8.368144
 30
0.0
 10
8.197514
 20
8.642136
 30
0.0
 10
8.553024
 20
8.981608
 30
0.0
 10
8.821464
 20
9.372830
 30
0.0
 10
9.004798
 20
9.802070
 30
0.0
 10
9.104987
 20
10.255598
 30
0.0
 10
9.123994
 20
10.719683
 30
0.0
 10
9.063781
 20
11.180592
 30
0.0
 10
8.926310
 20
11.624597
 30
0.0
 10
8.713544
 20
12.037966
 30
0.0
 10
8.427443
 20
12.406967
 30
0.0
 10
8.069972
 20
12.717869
 30
0.0
 10
7.643092
 20
12.956943
 30
0.0
 10
7.148764
 20
13.110457
 30
0.0
 10
6.588952
 20
13.164679
 30
0.0
 10
6.588952
 20
13.164679
 30
0.0
 10
6.588952
 20
13.164679
 30
0.0
 10
6.588952
 20
13.164679
 30
0.0
 10
6.588952
 20
13.164679
 30
0.0
 10
6.588952
 20
13.164679
 30
0.0
 10
6.588952
 20
13.164679
 30
0.0
 10
6.588952
 20
13.164679
 30
0.0
 10
6.588952
 20
13.164679
 30
0.0
 10
6.588952
 20
13.164679
 30
0.0
 10
6.588952
 20
13.164679
 30
0.0
 10
6.588952
 20
13.164679
 30
0.0
 10
6.588952
 20
13.164679
 30
0.0
 10
6.588952
 20
13.164679
 30
0.0
 10
6.588952
 20
13.164679
 30
0.0
 10
6.588952
 20
13.164679
 30
0.0
 10
6.588952
 20
13.164679
 30
0.0
 10
6.441434
 20
13.161390
 30
0.0
 10
6.294903
 20
13.150835
 30
0.0
 10
6.149604
 20
13.133117
 30
0.0
 10
6.005784
 20
13.108338
 30
0.0
 10
5.863686
 20
13.076599
 30
0.0
 10
5.723556
 20
13.038000
 30
0.0
 10
5.585640
 20
12.992643
 30
0.0
 10
5.450181
 20
12.940628
 30
0.0
 10
5.317425
 20
12.882056
 30
0.0
 10
5.187618
 20
12.817030
 30
0.0
 10
5.061005
 20
12.745649
 30
0.0
 10
4.937830
 20
12.668015
 30
0.0
 10
4.818338
 20
12.584229
 30
0.0
 10
4.702775
 20
12.494392
 30
0.0
 10
4.591386
 20
12.398604
 30
0.0
 10
4.484416
 20
12.296968
 30
0.0
 10
4.291587
 20
12.123253
 30
0.0
 10
4.098758
 20
11.949539
 30
0.0
 10
3.905928
 20
11.775825
 30
0.0
 10
3.713098
 20
11.602110
 30
0.0
 10
3.520269
 20
11.428396
 30
0.0
 10
3.327440
 20
11.254682
 30
0.0
 10
3.134610
 20
11.080968
 30
0.0
 10
2.941781
 20
10.907253
 30
0.0
 10
2.748951
 20
10.733539
 30
0.0
 10
2.556122
 20
10.559825
 30
0.0
 10
2.363292
 20
10.386110
 30
0.0
 10
2.170463
 20
10.212396
 30
0.0
 10
1.977633
 20
10.038682
 30
0.0
 10
1.784804
 20
9.864967
 30
0.0
 10
1.591974
 20
9.691253
 30
0.0
 10
1.399145
 20
9.517539
 30
0.0
  0
ENDSEC
  0
SECTION
  2
OBJECTS
  0
DICTIONARY
  5
C
330
0
100
AcDbDictionary
  3
ACAD_GROUP
350
D
  3
ACAD_MLINESTYLE
350
17
  0
DICTIONARY
  5
D
330
C
100
AcDbDictionary
  0
DICTIONARY
  5
1A
330
C
100
AcDbDictionary
  0
DICTIONARY
  5
17
330
C
100
AcDbDictionary
  3
STANDARD
350
18
  0
DICTIONARY
  5
19
330
C
100
AcDbDictionary
  0
ENDSEC
  0
EOF
