  0
SECTION
  2
HEADER
  9
$ACADVER
  1
AC1014
  9
$HANDSEED
  5
FFFF
  9
$MEASUREMENT
 70
     1
  0
ENDSEC
  0
SECTION
  2
TABLES
  0
TABLE
  2
VPORT
  5
8
330
0
100
AcDbSymbolTable
 70
     4
  0
VPORT
  5
2E
330
8
100
AcDbSymbolTableRecord
100
AcDbViewportTableRecord
  2
*ACTIVE
 70
     0
 10
0.0
 20
0.0
 11
1.0
 21
1.0
 12
210.0
 22
148.5
 13
0.0
 23
0.0
 14
10.0
 24
10.0
 15
10.0
 25
10.0
 16
0.0
 26
0.0
 36
1.0
 17
0.0
 27
0.0
 37
0.0
 40
341.0
 41
1.24
 42
50.0
 43
0.0
 44
0.0
 50
0.0
 51
0.0
 71
     0
 72
   100
 73
     1
 74
     3
 75
     0
 76
     0
 77
     0
 78
     0
  0
ENDTAB
  0
TABLE
  2
LTYPE
  5
5
330
0
100
AcDbSymbolTable
 70
     1
  0
LTYPE
  5
14
330
5
100
AcDbSymbolTableRecord
100
AcDbLinetypeTableRecord
  2
BYBLOCK
 70
     0
  3

 72
    65
 73
     0
 40
0.0
  0
LTYPE
  5
15
330
5
100
AcDbSymbolTableRecord
100
AcDbLinetypeTableRecord
  2
BYLAYER
 70
     0
  3

 72
    65
 73
     0
 40
0.0
  0
LTYPE
  5
16
330
5
100
AcDbSymbolTableRecord
100
AcDbLinetypeTableRecord
  2
CONTINUOUS
 70
     0
  3
Solid line
 72
    65
 73
     0
 40
0.0
  0
ENDTAB
  0
TABLE
  2
LAYER
  5
2
100
AcDbSymbolTable
 70
1
  0
LAYER
  5
50
100
AcDbSymbolTableRecord
100
AcDbLayerTableRecord
  2
0
 70
0
  6
CONTINUOUS
  0
ENDTAB
  0
TABLE
  2
STYLE
  5
3
330
0
100
AcDbSymbolTable
 70
     1
  0
STYLE
  5
11
330
3
100
AcDbSymbolTableRecord
100
AcDbTextStyleTableRecord
  2
STANDARD
 70
     0
 40
0.0
 41
1.0
 50
0.0
 71
     0
 42
2.5
  3
txt
  4

  0
ENDTAB
  0
TABLE
  2
VIEW
  5
6
330
0
100
AcDbSymbolTable
 70
     0
  0
ENDTAB
  0
TABLE
  2
UCS
  5
7
330
0
100
AcDbSymbolTable
 70
     0
  0
ENDTAB
  0
TABLE
  2
APPID
  5
9
330
0
100
AcDbSymbolTable
 70
     2
  0
APPID
  5
12
330
9
100
AcDbSymbolTableRecord
100
AcDbRegAppTableRecord
  2
ACAD
 70
     0
  0
ENDTAB
  0
TABLE
  2
DIMSTYLE
  5
A
330
0
100
AcDbSymbolTable
 70
     1
  0
DIMSTYLE
105
27
330
A
100
AcDbSymbolTableRecord
100
AcDbDimStyleTableRecord
  2
ISO-25
 70
     0
  3

  4

  5

  6

  7

 40
1.0
 41
2.5
 42
0.625
 43
3.75
 44
1.25
 45
0.0
 46
0.0
 47
0.0
 48
0.0
140
2.5
141
2.5
142
0.0
143
0.03937007874016
144
1.0
145
0.0
146
1.0
147
0.625
 71
     0
 72
     0
 73
     0
 74
     0
 75
     0
 76
     0
 77
     1
 78
     8
170
     0
171
     3
172
     1
173
     0
174
     0
175
     0
176
     0
177
     0
178
     0
270
     2
271
     2
272
     2
273
     2
274
     3
340
11
275
     0
280
     0
281
     0
282
     0
283
     0
284
     8
285
     0
286
     0
287
     3
288
     0
  0
ENDTAB
  0
TABLE
  2
BLOCK_RECORD
  5
1
330
0
100
AcDbSymbolTable
 70
     1
  0
BLOCK_RECORD
  5
1F
330
1
100
AcDbSymbolTableRecord
100
AcDbBlockTableRecord
  2
*MODEL_SPACE
  0
BLOCK_RECORD
  5
1B
330
1
100
AcDbSymbolTableRecord
100
AcDbBlockTableRecord
  2
*PAPER_SPACE
  0
ENDTAB
  0
ENDSEC
  0
SECTION
  2
BLOCKS
  0
BLOCK
  5
20
330
1F
100
AcDbEntity
  8
0
100
AcDbBlockBegin
  2
*MODEL_SPACE
 70
     0
 10
0.0
 20
0.0
 30
0.0
  3
*MODEL_SPACE
  1

  0
ENDBLK
  5
21
330
1F
100
AcDbEntity
  8
0
100
AcDbBlockEnd
  0
BLOCK
  5
1C
330
1B
100
AcDbEntity
 67
     1
  8
0
100
AcDbBlockBegin
  2
*PAPER_SPACE
  1

  0
ENDBLK
  5
1D
330
1B
100
AcDbEntity
 67
     1
  8
0
100
AcDbBlockEnd
  0
ENDSEC
  0
SECTION
  2
ENTITIES
  0
LWPOLYLINE
  5
100
100
AcDbEntity
  8
0
 62
7
100
AcDbPolyline
 90
112
 70
1
 10
31.920000
 20
69.000000
 30
0.0
 10
29.640785
 20
69.336407
 30
0.0
 10
27.376128
 20
69.861372
 30
0.0
 10
25.142693
 20
70.578356
 30
0.0
 10
22.957148
 20
71.490821
 30
0.0
 10
20.836159
 20
72.602225
 30
0.0
 10
18.796391
 20
73.916030
 30
0.0
 10
16.854512
 20
75.435698
 30
0.0
 10
15.027188
 20
77.164688
 30
0.0
 10
13.331084
 20
79.106461
 30
0.0
 10
11.782866
 20
81.264478
 30
0.0
 10
10.399202
 20
83.642199
 30
0.0
 10
9.196758
 20
86.243086
 30
0.0
 10
8.192199
 20
89.070599
 30
0.0
 10
7.402192
 20
92.128198
 30
0.0
 10
6.843404
 20
95.419345
 30
0.0
 10
6.532500
 20
98.947500
 30
0.0
 10
9.969029
 20
98.817676
 30
0.0
 10
13.199224
 20
98.432739
 30
0.0
 10
16.222590
 20
97.799489
 30
0.0
 10
19.038633
 20
96.924727
 30
0.0
 10
21.646858
 20
95.815252
 30
0.0
 10
24.046772
 20
94.477866
 30
0.0
 10
26.237880
 20
92.919370
 30
0.0
 10
28.219687
 20
91.146563
 30
0.0
 10
29.991700
 20
89.166246
 30
0.0
 10
31.553422
 20
86.985220
 30
0.0
 10
32.904362
 20
84.610285
 30
0.0
 10
34.044023
 20
82.048242
 30
0.0
 10
34.971912
 20
79.305892
 30
0.0
 10
35.687534
 20
76.390034
 30
0.0
 10
36.190395
 20
73.307470
 30
0.0
 10
36.480000
 20
70.065000
 30
0.0
 10
37.296325
 20
73.775816
 30
0.0
 10
38.377354
 20
76.968867
 30
0.0
 10
39.679296
 20
79.682564
 30
0.0
 10
41.158360
 20
81.955313
 30
0.0
 10
42.770753
 20
83.825522
 30
0.0
 10
44.472686
 20
85.331602
 30
0.0
 10
46.220365
 20
86.511958
 30
0.0
 10
47.970000
 20
87.405000
 30
0.0
 10
49.677799
 20
88.049136
 30
0.0
 10
51.299971
 20
88.482773
 30
0.0
 10
52.792724
 20
88.744322
 30
0.0
 10
54.112266
 20
88.872188
 30
0.0
 10
55.214806
 20
88.904783
 30
0.0
 10
56.056552
 20
88.880513
 30
0.0
 10
56.593715
 20
88.837785
 30
0.0
 10
56.782500
 20
88.815000
 30
0.0
 10
56.808690
 20
86.613991
 30
0.0
 10
56.598267
 20
84.526934
 30
0.0
 10
56.164932
 20
82.556682
 30
0.0
 10
55.522384
 20
80.706094
 30
0.0
 10
54.684323
 20
78.978025
 30
0.0
 10
53.664449
 20
77.375332
 30
0.0
 10
52.476463
 20
75.900871
 30
0.0
 10
51.134063
 20
74.557500
 30
0.0
 10
49.650951
 20
73.348074
 30
0.0
 10
48.040826
 20
72.275450
 30
0.0
 10
46.317388
 20
71.342483
 30
0.0
 10
44.494336
 20
70.552031
 30
0.0
 10
42.585373
 20
69.906951
 30
0.0
 10
40.604195
 20
69.410098
 30
0.0
 10
38.564504
 20
69.064328
 30
0.0
 10
36.480000
 20
68.872500
 30
0.0
 10
35.713601
 20
70.223729
 30
0.0
 10
34.629434
 20
71.763032
 30
0.0
 10
33.278167
 20
73.452431
 30
0.0
 10
31.710469
 20
75.253946
 30
0.0
 10
29.977010
 20
77.129595
 30
0.0
 10
28.128457
 20
79.041401
 30
0.0
 10
26.215481
 20
80.951384
 30
0.0
 10
24.288750
 20
82.821562
 30
0.0
 10
22.398933
 20
84.613958
 30
0.0
 10
20.596699
 20
86.290591
 30
0.0
 10
18.932717
 20
87.813481
 30
0.0
 10
17.457656
 20
89.144648
 30
0.0
 10
16.222185
 20
90.246114
 30
0.0
 10
15.276973
 20
91.079897
 30
0.0
 10
14.672688
 20
91.608019
 30
0.0
 10
14.460000
 20
91.792500
 30
0.0
 10
14.451930
 20
91.798245
 30
0.0
 10
14.443552
 20
91.802213
 30
0.0
 10
14.435018
 20
91.804523
 30
0.0
 10
14.426475
 20
91.805273
 30
0.0
 10
14.418068
 20
91.804578
 30
0.0
 10
14.409953
 20
91.802546
 30
0.0
 10
14.402273
 20
91.799283
 30
0.0
 10
14.395148
 20
91.794903
 30
0.0
 10
14.388773
 20
91.789511
 30
0.0
 10
14.383298
 20
91.783211
 30
0.0
 10
14.378873
 20
91.776116
 30
0.0
 10
14.375648
 20
91.768334
 30
0.0
 10
14.373698
 20
91.759973
 30
0.0
 10
14.373263
 20
91.751143
 30
0.0
 10
14.374463
 20
91.741950
 30
0.0
 10
14.377463
 20
91.732504
 30
0.0
 10
14.581806
 20
91.552683
 30
0.0
 10
15.158620
 20
91.037494
 30
0.0
 10
16.053575
 20
90.223345
 30
0.0
 10
17.212346
 20
89.146644
 30
0.0
 10
18.580603
 20
87.843801
 30
0.0
 10
20.104020
 20
86.351225
 30
0.0
 10
21.728270
 20
84.705323
 30
0.0
 10
23.399025
 20
82.942504
 30
0.0
 10
25.061958
 20
81.099177
 30
0.0
 10
26.662741
 20
79.211752
 30
0.0
 10
28.147047
 20
77.316636
 30
0.0
 10
29.460548
 20
75.450238
 30
0.0
 10
30.548918
 20
73.648967
 30
0.0
 10
31.357829
 20
71.949233
 30
0.0
 10
31.832953
 20
70.387442
 30
0.0
  0
LWPOLYLINE
  5
101
100
AcDbEntity
  8
0
 62
7
100
AcDbPolyline
 90
113
 70
0
 10
30.048879
 20
3.000000
 30
0.0
 10
29.778694
 20
3.016050
 30
0.0
 10
29.344817
 20
3.052650
 30
0.0
 10
28.771327
 20
3.123675
 30
0.0
 10
28.082307
 20
3.243000
 30
0.0
 10
27.301841
 20
3.424455
 30
0.0
 10
26.454010
 20
3.681870
 30
0.0
 10
25.562895
 20
4.029113
 30
0.0
 10
24.652579
 20
4.480005
 30
0.0
 10
23.747143
 20
5.048408
 30
0.0
 10
22.870672
 20
5.748150
 30
0.0
 10
22.047245
 20
6.593085
 30
0.0
 10
21.300946
 20
7.597065
 30
0.0
 10
20.655856
 20
8.773920
 30
0.0
 10
20.136058
 20
10.137503
 30
0.0
 10
19.765633
 20
11.701650
 30
0.0
 10
19.568663
 20
13.480170
 30
0.0
 10
19.545376
 20
14.610510
 30
0.0
 10
19.631015
 20
15.707558
 30
0.0
 10
19.810757
 20
16.775760
 30
0.0
 10
20.069780
 20
17.819587
 30
0.0
 10
20.393261
 20
18.843495
 30
0.0
 10
20.766378
 20
19.851945
 30
0.0
 10
21.174307
 20
20.849393
 30
0.0
 10
21.602228
 20
21.840300
 30
0.0
 10
22.035317
 20
22.829130
 30
0.0
 10
22.458751
 20
23.820330
 30
0.0
 10
22.857709
 20
24.818370
 30
0.0
 10
23.217367
 20
25.827711
 30
0.0
 10
23.522903
 20
26.852803
 30
0.0
 10
23.759495
 20
27.898111
 30
0.0
 10
23.912320
 20
28.968094
 30
0.0
 10
23.966560
 20
30.067210
 30
0.0
 10
23.550410
 20
32.653745
 30
0.0
 10
22.750860
 20
34.857686
 30
0.0
 10
21.624515
 20
36.687153
 30
0.0
 10
20.227984
 20
38.150221
 30
0.0
 10
18.617872
 20
39.254964
 30
0.0
 10
16.850786
 20
40.009458
 30
0.0
 10
14.983334
 20
40.421778
 30
0.0
 10
13.072124
 20
40.500000
 30
0.0
 10
11.173763
 20
40.252199
 30
0.0
 10
9.344857
 20
39.686450
 30
0.0
 10
7.642014
 20
38.810827
 30
0.0
 10
6.121842
 20
37.633407
 30
0.0
 10
4.840947
 20
36.162265
 30
0.0
 10
3.855937
 20
34.405475
 30
0.0
 10
3.223419
 20
32.371113
 30
0.0
 10
3.000000
 20
30.067255
 30
0.0
 10
3.000000
 20
30.067255
 30
0.0
 10
3.000000
 20
30.067255
 30
0.0
 10
3.000000
 20
30.067255
 30
0.0
 10
3.000000
 20
30.067255
 30
0.0
 10
3.000000
 20
30.067255
 30
0.0
 10
3.000000
 20
30.067255
 30
0.0
 10
3.000000
 20
30.067255
 30
0.0
 10
3.000000
 20
30.067255
 30
0.0
 10
3.000000
 20
30.067255
 30
0.0
 10
3.000000
 20
30.067255
 30
0.0
 10
3.000000
 20
30.067255
 30
0.0
 10
3.000000
 20
30.067255
 30
0.0
 10
3.000000
 20
30.067255
 30
0.0
 10
3.000000
 20
30.067255
 30
0.0
 10
3.000000
 20
30.067255
 30
0.0
 10
3.000000
 20
30.067255
 30
0.0
 10
3.013543
 20
29.460156
 30
0.0
 10
3.056979
 20
28.857122
 30
0.0
 10
3.129892
 20
28.259159
 30
0.0
 10
3.231868
 20
27.667278
 30
0.0
 10
3.362489
 20
27.082487
 30
0.0
 10
3.521340
 20
26.505796
 30
0.0
 10
3.708004
 20
25.938211
 30
0.0
 10
3.922067
 20
25.380743
 30
0.0
 10
4.163112
 20
24.834398
 30
0.0
 10
4.430723
 20
24.300188
 30
0.0
 10
4.724485
 20
23.779125
 30
0.0
 10
5.043981
 20
23.272208
 30
0.0
 10
5.388795
 20
22.780447
 30
0.0
 10
5.758512
 20
22.304858
 30
0.0
 10
6.152716
 20
21.846450
 30
0.0
 10
6.570991
 20
21.406223
 30
0.0
 10
7.496279
 20
20.480550
 30
0.0
 10
8.421567
 20
19.554885
 30
0.0
 10
9.346855
 20
18.629213
 30
0.0
 10
10.272143
 20
17.703540
 30
0.0
 10
11.197430
 20
16.777868
 30
0.0
 10
12.122718
 20
15.852203
 30
0.0
 10
13.048007
 20
14.926530
 30
0.0
 10
13.973294
 20
14.000858
 30
0.0
 10
14.898582
 20
13.075185
 30
0.0
 10
15.823870
 20
12.149513
 30
0.0
 10
16.749157
 20
11.223848
 30
0.0
 10
17.674446
 20
10.298175
 30
0.0
 10
18.599734
 20
9.372503
 30
0.0
 10
19.525021
 20
8.446830
 30
0.0
 10
20.450309
 20
7.521165
 30
0.0
 10
21.375597
 20
6.595493
 30
0.0
 10
21.815822
 20
6.177218
 30
0.0
 10
22.274233
 20
5.783018
 30
0.0
 10
22.749822
 20
5.413298
 30
0.0
 10
23.241579
 20
5.068478
 30
0.0
 10
23.748496
 20
4.748985
 30
0.0
 10
24.269563
 20
4.455225
 30
0.0
 10
24.803773
 20
4.187618
 30
0.0
 10
25.350116
 20
3.946568
 30
0.0
 10
25.907585
 20
3.732510
 30
0.0
 10
26.475169
 20
3.545843
 30
0.0
 10
27.051862
 20
3.386993
 30
0.0
 10
27.636652
 20
3.256373
 30
0.0
 10
28.228533
 20
3.154395
 30
0.0
 10
28.826495
 20
3.081495
 30
0.0
 10
29.429530
 20
3.038070
 30
0.0
 10
30.036628
 20
3.024495
 30
0.0
  0
LWPOLYLINE
  5
102
100
AcDbEntity
  8
0
 62
7
100
AcDbPolyline
 90
113
 70
0
 10
63.823125
 20
30.065254
 30
0.0
 10
63.807105
 20
29.795069
 30
0.0
 10
63.770497
 20
29.361191
 30
0.0
 10
63.699450
 20
28.787702
 30
0.0
 10
63.580124
 20
28.098683
 30
0.0
 10
63.398672
 20
27.318218
 30
0.0
 10
63.141251
 20
26.470388
 30
0.0
 10
62.794016
 20
25.579268
 30
0.0
 10
62.343121
 20
24.668955
 30
0.0
 10
61.774724
 20
23.763518
 30
0.0
 10
61.074977
 20
22.887045
 30
0.0
 10
60.230039
 20
22.063620
 30
0.0
 10
59.226064
 20
21.317318
 30
0.0
 10
58.049208
 20
20.672228
 30
0.0
 10
56.685626
 20
20.152433
 30
0.0
 10
55.121474
 20
19.782008
 30
0.0
 10
53.342908
 20
19.585035
 30
0.0
 10
52.212500
 20
19.561785
 30
0.0
 10
51.115273
 20
19.647428
 30
0.0
 10
50.046794
 20
19.827165
 30
0.0
 10
49.002630
 20
20.086185
 30
0.0
 10
47.978349
 20
20.409675
 30
0.0
 10
46.969519
 20
20.782785
 30
0.0
 10
45.971706
 20
21.190718
 30
0.0
 10
44.980480
 20
21.618630
 30
0.0
 10
43.991407
 20
22.051718
 30
0.0
 10
43.000054
 20
22.475153
 30
0.0
 10
42.001991
 20
22.874108
 30
0.0
 10
40.992784
 20
23.233763
 30
0.0
 10
39.968000
 20
23.539305
 30
0.0
 10
38.923208
 20
23.775893
 30
0.0
 10
37.853975
 20
23.928720
 30
0.0
 10
36.755869
 20
23.982945
 30
0.0
 10
34.169378
 20
23.566868
 30
0.0
 10
31.965437
 20
22.767510
 30
0.0
 10
30.135970
 20
21.641468
 30
0.0
 10
28.672903
 20
20.245335
 30
0.0
 10
27.568159
 20
18.635685
 30
0.0
 10
26.813665
 20
16.869113
 30
0.0
 10
26.401345
 20
15.002213
 30
0.0
 10
26.323123
 20
13.091580
 30
0.0
 10
26.570925
 20
11.193788
 30
0.0
 10
27.136674
 20
9.365438
 30
0.0
 10
28.012297
 20
7.663110
 30
0.0
 10
29.189716
 20
6.143400
 30
0.0
 10
30.660859
 20
4.862895
 30
0.0
 10
32.417649
 20
3.878190
 30
0.0
 10
34.452010
 20
3.245865
 30
0.0
 10
36.755869
 20
3.022515
 30
0.0
 10
36.755869
 20
3.022515
 30
0.0
 10
36.755869
 20
3.022515
 30
0.0
 10
36.755869
 20
3.022515
 30
0.0
 10
36.755869
 20
3.022515
 30
0.0
 10
36.755869
 20
3.022515
 30
0.0
 10
36.755869
 20
3.022515
 30
0.0
 10
36.755869
 20
3.022515
 30
0.0
 10
36.755869
 20
3.022515
 30
0.0
 10
36.755869
 20
3.022515
 30
0.0
 10
36.755869
 20
3.022515
 30
0.0
 10
36.755869
 20
3.022515
 30
0.0
 10
36.755869
 20
3.022515
 30
0.0
 10
36.755869
 20
3.022515
 30
0.0
 10
36.755869
 20
3.022515
 30
0.0
 10
36.755869
 20
3.022515
 30
0.0
 10
36.755869
 20
3.022515
 30
0.0
 10
37.362967
 20
3.036090
 30
0.0
 10
37.966002
 20
3.079515
 30
0.0
 10
38.563964
 20
3.152415
 30
0.0
 10
39.155845
 20
3.254393
 30
0.0
 10
39.740636
 20
3.385013
 30
0.0
 10
40.317328
 20
3.543863
 30
0.0
 10
40.884913
 20
3.730530
 30
0.0
 10
41.442381
 20
3.944595
 30
0.0
 10
41.988725
 20
4.185638
 30
0.0
 10
42.522934
 20
4.453253
 30
0.0
 10
43.044002
 20
4.747005
 30
0.0
 10
43.550918
 20
5.066505
 30
0.0
 10
44.042675
 20
5.411325
 30
0.0
 10
44.518264
 20
5.781038
 30
0.0
 10
44.976675
 20
6.175238
 30
0.0
 10
45.416900
 20
6.593528
 30
0.0
 10
46.342954
 20
7.518810
 30
0.0
 10
47.269007
 20
8.444108
 30
0.0
 10
48.195061
 20
9.369390
 30
0.0
 10
49.121114
 20
10.294680
 30
0.0
 10
50.047168
 20
11.219963
 30
0.0
 10
50.973221
 20
12.145253
 30
0.0
 10
51.899275
 20
13.070543
 30
0.0
 10
52.825328
 20
13.995833
 30
0.0
 10
53.751382
 20
14.921115
 30
0.0
 10
54.677436
 20
15.846405
 30
0.0
 10
55.603489
 20
16.771695
 30
0.0
 10
56.529543
 20
17.696985
 30
0.0
 10
57.455596
 20
18.622268
 30
0.0
 10
58.381650
 20
19.547558
 30
0.0
 10
59.307703
 20
20.472848
 30
0.0
 10
60.233757
 20
21.398138
 30
0.0
 10
60.652031
 20
21.838358
 30
0.0
 10
61.046236
 20
22.296773
 30
0.0
 10
61.415953
 20
22.772363
 30
0.0
 10
61.760767
 20
23.264115
 30
0.0
 10
62.080263
 20
23.771033
 30
0.0
 10
62.374024
 20
24.292103
 30
0.0
 10
62.641636
 20
24.826313
 30
0.0
 10
62.882680
 20
25.372658
 30
0.0
 10
63.096743
 20
25.930125
 30
0.0
 10
63.283408
 20
26.497710
 30
0.0
 10
63.442259
 20
27.074400
 30
0.0
 10
63.572880
 20
27.659190
 30
0.0
 10
63.674855
 20
28.251068
 30
0.0
 10
63.747770
 20
28.849033
 30
0.0
 10
63.791203
 20
29.452068
 30
0.0
 10
63.804748
 20
30.059166
 30
0.0
  0
LWPOLYLINE
  5
103
100
AcDbEntity
  8
0
 62
7
100
AcDbPolyline
 90
113
 70
0
 10
36.120000
 20
63.838125
 30
0.0
 10
36.390185
 20
63.822105
 30
0.0
 10
36.824062
 20
63.785498
 30
0.0
 10
37.397552
 20
63.714450
 30
0.0
 10
38.086572
 20
63.595124
 30
0.0
 10
38.867038
 20
63.413672
 30
0.0
 10
39.714869
 20
63.156251
 30
0.0
 10
40.605984
 20
62.809016
 30
0.0
 10
41.516300
 20
62.358121
 30
0.0
 10
42.421735
 20
61.789723
 30
0.0
 10
43.298207
 20
61.089977
 30
0.0
 10
44.121634
 20
60.245039
 30
0.0
 10
44.867932
 20
59.241064
 30
0.0
 10
45.513022
 20
58.064208
 30
0.0
 10
46.032821
 20
56.700626
 30
0.0
 10
46.403246
 20
55.136474
 30
0.0
 10
46.600216
 20
53.357908
 30
0.0
 10
46.623503
 20
52.227568
 30
0.0
 10
46.537864
 20
51.130525
 30
0.0
 10
46.358122
 20
50.062319
 30
0.0
 10
46.099099
 20
49.018492
 30
0.0
 10
45.775618
 20
47.994583
 30
0.0
 10
45.402501
 20
46.986134
 30
0.0
 10
44.994571
 20
45.988685
 30
0.0
 10
44.566651
 20
44.997777
 30
0.0
 10
44.133562
 20
44.008951
 30
0.0
 10
43.710128
 20
43.017746
 30
0.0
 10
43.311170
 20
42.019705
 30
0.0
 10
42.951512
 20
41.010368
 30
0.0
 10
42.645976
 20
39.985275
 30
0.0
 10
42.409385
 20
38.939967
 30
0.0
 10
42.256559
 20
37.869985
 30
0.0
 10
42.202327
 20
36.770869
 30
0.0
 10
42.618405
 20
34.184378
 30
0.0
 10
43.417760
 20
31.980437
 30
0.0
 10
44.543802
 20
30.150971
 30
0.0
 10
45.939942
 20
28.687903
 30
0.0
 10
47.549591
 20
27.583163
 30
0.0
 10
49.316159
 20
26.828670
 30
0.0
 10
51.183057
 20
26.416350
 30
0.0
 10
53.093696
 20
26.338125
 30
0.0
 10
54.991487
 20
26.585925
 30
0.0
 10
56.819839
 20
27.151673
 30
0.0
 10
58.522164
 20
28.027298
 30
0.0
 10
60.041873
 20
29.204717
 30
0.0
 10
61.322376
 20
30.675859
 30
0.0
 10
62.307084
 20
32.432649
 30
0.0
 10
62.939408
 20
34.467011
 30
0.0
 10
63.162757
 20
36.770869
 30
0.0
 10
63.162757
 20
36.770869
 30
0.0
 10
63.162757
 20
36.770869
 30
0.0
 10
63.162757
 20
36.770869
 30
0.0
 10
63.162757
 20
36.770869
 30
0.0
 10
63.162757
 20
36.770869
 30
0.0
 10
63.162757
 20
36.770869
 30
0.0
 10
63.162757
 20
36.770869
 30
0.0
 10
63.162757
 20
36.770869
 30
0.0
 10
63.162757
 20
36.770869
 30
0.0
 10
63.162757
 20
36.770869
 30
0.0
 10
63.162757
 20
36.770869
 30
0.0
 10
63.162757
 20
36.770869
 30
0.0
 10
63.162757
 20
36.770869
 30
0.0
 10
63.162757
 20
36.770869
 30
0.0
 10
63.162757
 20
36.770869
 30
0.0
 10
63.162757
 20
36.770869
 30
0.0
 10
63.149212
 20
37.377968
 30
0.0
 10
63.105773
 20
37.981002
 30
0.0
 10
63.032857
 20
38.578964
 30
0.0
 10
62.930882
 20
39.170845
 30
0.0
 10
62.800262
 20
39.755636
 30
0.0
 10
62.641411
 20
40.332328
 30
0.0
 10
62.454746
 20
40.899913
 30
0.0
 10
62.240687
 20
41.457383
 30
0.0
 10
61.999642
 20
42.003726
 30
0.0
 10
61.732031
 20
42.537936
 30
0.0
 10
61.438269
 20
43.059003
 30
0.0
 10
61.118773
 20
43.565920
 30
0.0
 10
60.773959
 20
44.057677
 30
0.0
 10
60.404242
 20
44.533265
 30
0.0
 10
60.010037
 20
44.991677
 30
0.0
 10
59.591763
 20
45.431902
 30
0.0
 10
58.666092
 20
46.357955
 30
0.0
 10
57.740422
 20
47.284009
 30
0.0
 10
56.814751
 20
48.210062
 30
0.0
 10
55.889080
 20
49.136116
 30
0.0
 10
54.963410
 20
50.062169
 30
0.0
 10
54.037739
 20
50.988223
 30
0.0
 10
53.112068
 20
51.914276
 30
0.0
 10
52.186397
 20
52.840330
 30
0.0
 10
51.260726
 20
53.766383
 30
0.0
 10
50.335056
 20
54.692438
 30
0.0
 10
49.409385
 20
55.618491
 30
0.0
 10
48.483714
 20
56.544545
 30
0.0
 10
47.558044
 20
57.470598
 30
0.0
 10
46.632373
 20
58.396652
 30
0.0
 10
45.706702
 20
59.322705
 30
0.0
 10
44.781031
 20
60.248759
 30
0.0
 10
44.340806
 20
60.667033
 30
0.0
 10
43.882395
 20
61.061237
 30
0.0
 10
43.406807
 20
61.430954
 30
0.0
 10
42.915050
 20
61.775769
 30
0.0
 10
42.408133
 20
62.095265
 30
0.0
 10
41.887066
 20
62.389026
 30
0.0
 10
41.352856
 20
62.656637
 30
0.0
 10
40.806512
 20
62.897682
 30
0.0
 10
40.249044
 20
63.111745
 30
0.0
 10
39.681459
 20
63.298410
 30
0.0
 10
39.104768
 20
63.457261
 30
0.0
 10
38.519977
 20
63.587882
 30
0.0
 10
37.928095
 20
63.689857
 30
0.0
 10
37.330133
 20
63.762770
 30
0.0
 10
36.727099
 20
63.806207
 30
0.0
 10
36.120000
 20
63.819749
 30
0.0
  0
LWPOLYLINE
  5
104
100
AcDbEntity
  8
0
 62
7
100
AcDbPolyline
 90
113
 70
0
 10
3.060000
 20
36.135000
 30
0.0
 10
3.076017
 20
36.405185
 30
0.0
 10
3.112626
 20
36.839063
 30
0.0
 10
3.183671
 20
37.412552
 30
0.0
 10
3.302997
 20
38.101572
 30
0.0
 10
3.484449
 20
38.882038
 30
0.0
 10
3.741870
 20
39.729869
 30
0.0
 10
4.089106
 20
40.620984
 30
0.0
 10
4.540001
 20
41.531300
 30
0.0
 10
5.108398
 20
42.436736
 30
0.0
 10
5.808144
 20
43.313207
 30
0.0
 10
6.653082
 20
44.136634
 30
0.0
 10
7.657057
 20
44.882933
 30
0.0
 10
8.833913
 20
45.528023
 30
0.0
 10
10.197495
 20
46.047821
 30
0.0
 10
11.761648
 20
46.418246
 30
0.0
 10
13.540215
 20
46.615216
 30
0.0
 10
14.670623
 20
46.638503
 30
0.0
 10
15.767849
 20
46.552864
 30
0.0
 10
16.836329
 20
46.373122
 30
0.0
 10
17.880492
 20
46.114099
 30
0.0
 10
18.904774
 20
45.790618
 30
0.0
 10
19.913604
 20
45.417501
 30
0.0
 10
20.911417
 20
45.009571
 30
0.0
 10
21.902643
 20
44.581651
 30
0.0
 10
22.891716
 20
44.148562
 30
0.0
 10
23.883068
 20
43.725128
 30
0.0
 10
24.881131
 20
43.326170
 30
0.0
 10
25.890338
 20
42.966512
 30
0.0
 10
26.915123
 20
42.660976
 30
0.0
 10
27.959915
 20
42.424384
 30
0.0
 10
29.029148
 20
42.271559
 30
0.0
 10
30.127254
 20
42.217319
 30
0.0
 10
32.713745
 20
42.636425
 30
0.0
 10
34.917686
 20
43.438028
 30
0.0
 10
36.747152
 20
44.565618
 30
0.0
 10
38.210220
 20
45.962687
 30
0.0
 10
39.314963
 20
47.572726
 30
0.0
 10
40.069457
 20
49.339227
 30
0.0
 10
40.481777
 20
51.205681
 30
0.0
 10
40.560000
 20
53.115583
 30
0.0
 10
40.312199
 20
55.012418
 30
0.0
 10
39.746449
 20
56.839680
 30
0.0
 10
38.870827
 20
58.540862
 30
0.0
 10
37.693407
 20
60.059454
 30
0.0
 10
36.222265
 20
61.338947
 30
0.0
 10
34.465474
 20
62.322834
 30
0.0
 10
32.431113
 20
62.954605
 30
0.0
 10
30.127255
 20
63.177754
 30
0.0
 10
30.127255
 20
63.177754
 30
0.0
 10
30.127255
 20
63.177754
 30
0.0
 10
30.127255
 20
63.177754
 30
0.0
 10
30.127255
 20
63.177754
 30
0.0
 10
30.127255
 20
63.177754
 30
0.0
 10
30.127255
 20
63.177754
 30
0.0
 10
30.127255
 20
63.177754
 30
0.0
 10
30.127255
 20
63.177754
 30
0.0
 10
30.127255
 20
63.177754
 30
0.0
 10
30.127255
 20
63.177754
 30
0.0
 10
30.127255
 20
63.177754
 30
0.0
 10
30.127255
 20
63.177754
 30
0.0
 10
30.127255
 20
63.177754
 30
0.0
 10
30.127255
 20
63.177754
 30
0.0
 10
30.127255
 20
63.177754
 30
0.0
 10
30.127255
 20
63.177754
 30
0.0
 10
29.520156
 20
63.164209
 30
0.0
 10
28.917122
 20
63.120776
 30
0.0
 10
28.319159
 20
63.047861
 30
0.0
 10
27.727278
 20
62.945887
 30
0.0
 10
27.142487
 20
62.815265
 30
0.0
 10
26.565796
 20
62.656414
 30
0.0
 10
25.998211
 20
62.469750
 30
0.0
 10
25.440742
 20
62.255686
 30
0.0
 10
24.894399
 20
62.014642
 30
0.0
 10
24.360189
 20
61.747031
 30
0.0
 10
23.839122
 20
61.453269
 30
0.0
 10
23.332205
 20
61.133773
 30
0.0
 10
22.840448
 20
60.788959
 30
0.0
 10
22.364860
 20
60.419242
 30
0.0
 10
21.906448
 20
60.025037
 30
0.0
 10
21.466223
 20
59.606761
 30
0.0
 10
20.540170
 20
58.681090
 30
0.0
 10
19.614116
 20
57.755419
 30
0.0
 10
18.688063
 20
56.829748
 30
0.0
 10
17.762009
 20
55.904077
 30
0.0
 10
16.835956
 20
54.978407
 30
0.0
 10
15.909902
 20
54.052736
 30
0.0
 10
14.983849
 20
53.127065
 30
0.0
 10
14.057795
 20
52.201395
 30
0.0
 10
13.131742
 20
51.275724
 30
0.0
 10
12.205687
 20
50.350054
 30
0.0
 10
11.279634
 20
49.424383
 30
0.0
 10
10.353580
 20
48.498712
 30
0.0
 10
9.427527
 20
47.573041
 30
0.0
 10
8.501473
 20
46.647370
 30
0.0
 10
7.575420
 20
45.721700
 30
0.0
 10
6.649367
 20
44.796029
 30
0.0
 10
6.231092
 20
44.355804
 30
0.0
 10
5.836888
 20
43.897393
 30
0.0
 10
5.467171
 20
43.421804
 30
0.0
 10
5.122356
 20
42.930047
 30
0.0
 10
4.802860
 20
42.423130
 30
0.0
 10
4.509099
 20
41.902063
 30
0.0
 10
4.241488
 20
41.367853
 30
0.0
 10
4.000443
 20
40.821510
 30
0.0
 10
3.786380
 20
40.264042
 30
0.0
 10
3.599715
 20
39.696457
 30
0.0
 10
3.440864
 20
39.119765
 30
0.0
 10
3.310243
 20
38.534974
 30
0.0
 10
3.208268
 20
37.943093
 30
0.0
 10
3.135355
 20
37.345131
 30
0.0
 10
3.091918
 20
36.742096
 30
0.0
 10
3.078376
 20
36.135000
 30
0.0
  0
ENDSEC
  0
SECTION
  2
OBJECTS
  0
DICTIONARY
  5
C
330
0
100
AcDbDictionary
  3
ACAD_GROUP
350
D
  3
ACAD_MLINESTYLE
350
17
  0
DICTIONARY
  5
D
330
C
100
AcDbDictionary
  0
DICTIONARY
  5
1A
330
C
100
AcDbDictionary
  0
DICTIONARY
  5
17
330
C
100
AcDbDictionary
  3
STANDARD
350
18
  0
DICTIONARY
  5
19
330
C
100
AcDbDictionary
  0
ENDSEC
  0
EOF
