  0
SECTION
  2
HEADER
  9
$ACADVER
  1
AC1014
  9
$HANDSEED
  5
FFFF
  9
$MEASUREMENT
 70
     1
  0
ENDSEC
  0
SECTION
  2
TABLES
  0
TABLE
  2
VPORT
  5
8
330
0
100
AcDbSymbolTable
 70
     4
  0
VPORT
  5
2E
330
8
100
AcDbSymbolTableRecord
100
AcDbViewportTableRecord
  2
*ACTIVE
 70
     0
 10
0.0
 20
0.0
 11
1.0
 21
1.0
 12
210.0
 22
148.5
 13
0.0
 23
0.0
 14
10.0
 24
10.0
 15
10.0
 25
10.0
 16
0.0
 26
0.0
 36
1.0
 17
0.0
 27
0.0
 37
0.0
 40
341.0
 41
1.24
 42
50.0
 43
0.0
 44
0.0
 50
0.0
 51
0.0
 71
     0
 72
   100
 73
     1
 74
     3
 75
     0
 76
     0
 77
     0
 78
     0
  0
ENDTAB
  0
TABLE
  2
LTYPE
  5
5
330
0
100
AcDbSymbolTable
 70
     1
  0
LTYPE
  5
14
330
5
100
AcDbSymbolTableRecord
100
AcDbLinetypeTableRecord
  2
BYBLOCK
 70
     0
  3

 72
    65
 73
     0
 40
0.0
  0
LTYPE
  5
15
330
5
100
AcDbSymbolTableRecord
100
AcDbLinetypeTableRecord
  2
BYLAYER
 70
     0
  3

 72
    65
 73
     0
 40
0.0
  0
LTYPE
  5
16
330
5
100
AcDbSymbolTableRecord
100
AcDbLinetypeTableRecord
  2
CONTINUOUS
 70
     0
  3
Solid line
 72
    65
 73
     0
 40
0.0
  0
ENDTAB
  0
TABLE
  2
LAYER
  5
2
100
AcDbSymbolTable
 70
2
  0
LAYER
  5
50
100
AcDbSymbolTableRecord
100
AcDbLayerTableRecord
  2
0
 70
0
  6
CONTINUOUS
  0
LAYER
  5
51
100
AcDbSymbolTableRecord
100
AcDbLayerTableRecord
  2
Layer_1
 70
0
  6
CONTINUOUS
  0
ENDTAB
  0
TABLE
  2
STYLE
  5
3
330
0
100
AcDbSymbolTable
 70
     1
  0
STYLE
  5
11
330
3
100
AcDbSymbolTableRecord
100
AcDbTextStyleTableRecord
  2
STANDARD
 70
     0
 40
0.0
 41
1.0
 50
0.0
 71
     0
 42
2.5
  3
txt
  4

  0
ENDTAB
  0
TABLE
  2
VIEW
  5
6
330
0
100
AcDbSymbolTable
 70
     0
  0
ENDTAB
  0
TABLE
  2
UCS
  5
7
330
0
100
AcDbSymbolTable
 70
     0
  0
ENDTAB
  0
TABLE
  2
APPID
  5
9
330
0
100
AcDbSymbolTable
 70
     2
  0
APPID
  5
12
330
9
100
AcDbSymbolTableRecord
100
AcDbRegAppTableRecord
  2
ACAD
 70
     0
  0
ENDTAB
  0
TABLE
  2
DIMSTYLE
  5
A
330
0
100
AcDbSymbolTable
 70
     1
  0
DIMSTYLE
105
27
330
A
100
AcDbSymbolTableRecord
100
AcDbDimStyleTableRecord
  2
ISO-25
 70
     0
  3

  4

  5

  6

  7

 40
1.0
 41
2.5
 42
0.625
 43
3.75
 44
1.25
 45
0.0
 46
0.0
 47
0.0
 48
0.0
140
2.5
141
2.5
142
0.0
143
0.03937007874016
144
1.0
145
0.0
146
1.0
147
0.625
 71
     0
 72
     0
 73
     0
 74
     0
 75
     0
 76
     0
 77
     1
 78
     8
170
     0
171
     3
172
     1
173
     0
174
     0
175
     0
176
     0
177
     0
178
     0
270
     2
271
     2
272
     2
273
     2
274
     3
340
11
275
     0
280
     0
281
     0
282
     0
283
     0
284
     8
285
     0
286
     0
287
     3
288
     0
  0
ENDTAB
  0
TABLE
  2
BLOCK_RECORD
  5
1
330
0
100
AcDbSymbolTable
 70
     1
  0
BLOCK_RECORD
  5
1F
330
1
100
AcDbSymbolTableRecord
100
AcDbBlockTableRecord
  2
*MODEL_SPACE
  0
BLOCK_RECORD
  5
1B
330
1
100
AcDbSymbolTableRecord
100
AcDbBlockTableRecord
  2
*PAPER_SPACE
  0
ENDTAB
  0
ENDSEC
  0
SECTION
  2
BLOCKS
  0
BLOCK
  5
20
330
1F
100
AcDbEntity
  8
0
100
AcDbBlockBegin
  2
*MODEL_SPACE
 70
     0
 10
0.0
 20
0.0
 30
0.0
  3
*MODEL_SPACE
  1

  0
ENDBLK
  5
21
330
1F
100
AcDbEntity
  8
0
100
AcDbBlockEnd
  0
BLOCK
  5
1C
330
1B
100
AcDbEntity
 67
     1
  8
0
100
AcDbBlockBegin
  2
*PAPER_SPACE
  1

  0
ENDBLK
  5
1D
330
1B
100
AcDbEntity
 67
     1
  8
0
100
AcDbBlockEnd
  0
ENDSEC
  0
SECTION
  2
ENTITIES
  0
LWPOLYLINE
  5
100
100
AcDbEntity
  8
Layer_1
 62
7
100
AcDbPolyline
 90
94
 70
1
 10
5.175351
 20
26.712830
 30
0.0
 10
5.229797
 20
26.639630
 30
0.0
 10
5.362569
 20
26.375230
 30
0.0
 10
5.276792
 20
26.202060
 30
0.0
 10
5.154909
 20
26.255560
 30
0.0
 10
4.276892
 20
26.619680
 30
0.0
 10
4.103046
 20
26.613680
 30
0.0
 10
4.351016
 20
26.223960
 30
0.0
 10
4.044779
 20
26.236160
 30
0.0
 10
3.633376
 20
26.361100
 30
0.0
 10
3.098848
 20
26.442200
 30
0.0
 10
3.155205
 20
26.400700
 30
0.0
 10
3.360190
 20
26.178710
 30
0.0
 10
3.353030
 20
25.997320
 30
0.0
 10
3.024538
 20
26.046020
 30
0.0
 10
2.264010
 20
26.170770
 30
0.0
 10
1.963506
 20
26.151870
 30
0.0
 10
1.874195
 20
26.132270
 30
0.0
 10
2.049568
 20
25.958430
 30
0.0
 10
2.224847
 20
25.784580
 30
0.0
 10
2.170114
 20
25.772780
 30
0.0
 10
1.273758
 20
25.731580
 30
0.0
 10
0.886044
 20
25.740580
 30
0.0
 10
0.918234
 20
25.698880
 30
0.0
 10
1.365743
 20
24.821440
 30
0.0
 10
1.402231
 20
24.705670
 30
0.0
 10
1.156268
 20
24.714670
 30
0.0
 10
0.857960
 20
24.739770
 30
0.0
 10
0.875822
 20
24.616070
 30
0.0
 10
1.476928
 20
24.013540
 30
0.0
 10
1.614571
 20
23.861180
 30
0.0
 10
1.624601
 20
23.791080
 30
0.0
 10
1.356287
 20
23.740280
 30
0.0
 10
1.020631
 20
23.796380
 30
0.0
 10
1.731870
 20
23.030790
 30
0.0
 10
1.900940
 20
22.870130
 30
0.0
 10
1.832453
 20
22.815830
 30
0.0
 10
1.426685
 20
22.791530
 30
0.0
 10
1.348455
 20
22.803330
 30
0.0
 10
1.403188
 20
22.745930
 30
0.0
 10
2.217015
 20
22.104890
 30
0.0
 10
2.300213
 20
21.908980
 30
0.0
 10
1.935328
 20
21.874280
 30
0.0
 10
1.843820
 20
21.884880
 30
0.0
 10
2.268118
 20
21.564320
 30
0.0
 10
2.772176
 20
21.290080
 30
0.0
 10
3.116906
 20
21.094650
 30
0.0
 10
3.012026
 20
21.018350
 30
0.0
 10
2.748296
 20
20.957350
 30
0.0
 10
2.589447
 20
20.949350
 30
0.0
 10
2.665385
 20
20.901850
 30
0.0
 10
3.668341
 20
20.531140
 30
0.0
 10
3.919653
 20
20.447140
 30
0.0
 10
3.898734
 20
20.376640
 30
0.0
 10
3.609597
 20
20.220080
 30
0.0
 10
3.495068
 20
20.190980
 30
0.0
 10
3.586863
 20
20.156680
 30
0.0
 10
4.548841
 20
19.983030
 30
0.0
 10
4.987086
 20
19.894030
 30
0.0
 10
4.714091
 20
19.630100
 30
0.0
 10
4.604625
 20
19.579400
 30
0.0
 10
4.674546
 20
19.570400
 30
0.0
 10
4.783629
 20
19.554300
 30
0.0
 10
5.613026
 20
19.584200
 30
0.0
 10
7.104565
 20
20.008020
 30
0.0
 10
7.918966
 20
20.765870
 30
0.0
 10
8.093767
 20
21.206790
 30
0.0
 10
8.104466
 20
21.264190
 30
0.0
 10
7.786004
 20
21.583320
 30
0.0
 10
6.253582
 20
22.872740
 30
0.0
 10
3.270217
 20
24.709110
 30
0.0
 10
2.973151
 20
24.865760
 30
0.0
 10
3.695948
 20
24.623420
 30
0.0
 10
6.935497
 20
23.084220
 30
0.0
 10
8.473459
 20
22.011920
 30
0.0
 10
8.649979
 20
21.877040
 30
0.0
 10
8.930807
 20
22.022430
 30
0.0
 10
9.614632
 20
23.331330
 30
0.0
 10
8.760973
 20
25.350900
 30
0.0
 10
8.336961
 20
25.805190
 30
0.0
 10
8.308114
 20
25.707390
 30
0.0
 10
8.169993
 20
25.406120
 30
0.0
 10
8.053936
 20
25.531350
 30
0.0
 10
7.317384
 20
26.310980
 30
0.0
 10
7.257398
 20
26.301980
 30
0.0
 10
7.272012
 20
26.144660
 30
0.0
 10
7.128064
 20
25.858200
 30
0.0
 10
7.013440
 20
25.926300
 30
0.0
 10
6.559913
 20
26.383840
 30
0.0
 10
6.283479
 20
26.556160
 30
0.0
 10
6.309938
 20
26.499260
 30
0.0
 10
6.305548
 20
26.163890
 30
0.0
 10
6.072289
 20
26.172890
 30
0.0
 10
5.324466
 20
26.658420
 30
0.0
  0
LWPOLYLINE
  5
101
100
AcDbEntity
  8
Layer_1
 62
7
100
AcDbPolyline
 90
91
 70
1
 10
15.279514
 20
26.706830
 30
0.0
 10
15.112546
 20
26.643830
 30
0.0
 10
14.399874
 20
26.171860
 30
0.0
 10
14.167952
 20
26.156960
 30
0.0
 10
14.154002
 20
26.491470
 30
0.0
 10
14.122672
 20
26.523270
 30
0.0
 10
13.479061
 20
25.949960
 30
0.0
 10
13.346575
 20
25.858460
 30
0.0
 10
13.218579
 20
26.000490
 30
0.0
 10
13.210479
 20
26.287530
 30
0.0
 10
13.193189
 20
26.339530
 30
0.0
 10
12.335135
 20
25.425890
 30
0.0
 10
12.309535
 20
25.390190
 30
0.0
 10
12.271135
 20
25.437090
 30
0.0
 10
12.161288
 20
25.725370
 30
0.0
 10
12.140078
 20
25.804970
 30
0.0
 10
11.717690
 20
25.360040
 30
0.0
 10
11.037400
 20
24.100330
 30
0.0
 10
10.860497
 20
23.161370
 30
0.0
 10
11.647006
 20
21.958110
 30
0.0
 10
11.998900
 20
22.011910
 30
0.0
 10
17.159158
 20
24.757530
 30
0.0
 10
17.495197
 20
24.865950
 30
0.0
 10
17.191349
 20
24.704140
 30
0.0
 10
13.460542
 20
22.287870
 30
0.0
 10
12.373815
 20
21.235050
 30
0.0
 10
12.526265
 20
20.820500
 30
0.0
 10
13.351936
 20
20.010400
 30
0.0
 10
14.055152
 20
19.756220
 30
0.0
 10
15.104722
 20
19.554860
 30
0.0
 10
15.820451
 20
19.569660
 30
0.0
 10
15.820548
 20
19.569660
 30
0.0
 10
15.754548
 20
19.631960
 30
0.0
 10
15.597323
 20
19.719960
 30
0.0
 10
15.488144
 20
19.884060
 30
0.0
 10
15.918556
 20
19.982360
 30
0.0
 10
16.864296
 20
20.150570
 30
0.0
 10
16.980638
 20
20.191970
 30
0.0
 10
16.872128
 20
20.217870
 30
0.0
 10
16.584805
 20
20.367840
 30
0.0
 10
16.777946
 20
20.523720
 30
0.0
 10
17.530545
 20
20.769880
 30
0.0
 10
17.860088
 20
20.939430
 30
0.0
 10
17.761608
 20
20.953530
 30
0.0
 10
17.561208
 20
20.977730
 30
0.0
 10
17.354694
 20
21.099230
 30
0.0
 10
17.704488
 20
21.290080
 30
0.0
 10
18.211888
 20
21.569860
 30
0.0
 10
18.630933
 20
21.884310
 30
0.0
 10
18.518507
 20
21.872010
 30
0.0
 10
18.142827
 20
21.921510
 30
0.0
 10
18.086857
 20
21.982010
 30
0.0
 10
18.239974
 20
22.095490
 30
0.0
 10
18.772975
 20
22.479380
 30
0.0
 10
19.100321
 20
22.792880
 30
0.0
 10
18.970414
 20
22.784880
 30
0.0
 10
18.565219
 20
22.860180
 30
0.0
 10
18.748140
 20
23.038900
 30
0.0
 10
19.111783
 20
23.382100
 30
0.0
 10
19.460908
 20
23.794080
 30
0.0
 10
19.384398
 20
23.776080
 30
0.0
 10
18.845761
 20
23.785080
 30
0.0
 10
18.857221
 20
23.860780
 30
0.0
 10
19.018364
 20
24.033380
 30
0.0
 10
19.507806
 20
24.495990
 30
0.0
 10
19.666750
 20
24.744430
 30
0.0
 10
19.608010
 20
24.738430
 30
0.0
 10
19.072051
 20
24.713330
 30
0.0
 10
19.134421
 20
24.902750
 30
0.0
 10
19.520225
 20
25.651240
 30
0.0
 10
19.588425
 20
25.745540
 30
0.0
 10
19.467210
 20
25.739540
 30
0.0
 10
18.305213
 20
25.772340
 30
0.0
 10
18.250383
 20
25.784240
 30
0.0
 10
18.425280
 20
25.957800
 30
0.0
 10
18.600177
 20
26.131450
 30
0.0
 10
18.519177
 20
26.147350
 30
0.0
 10
17.385262
 20
26.029770
 30
0.0
 10
17.100709
 20
26.094170
 30
0.0
 10
17.325276
 20
26.402510
 30
0.0
 10
17.196611
 20
26.431010
 30
0.0
 10
16.433313
 20
26.236250
 30
0.0
 10
16.124021
 20
26.199850
 30
0.0
 10
16.379344
 20
26.621000
 30
0.0
 10
16.410674
 20
26.665300
 30
0.0
 10
15.853413
 20
26.515520
 30
0.0
 10
15.300354
 20
26.243770
 30
0.0
 10
15.211804
 20
26.195970
 30
0.0
 10
15.153054
 20
26.244070
 30
0.0
 10
15.112554
 20
26.369870
 30
0.0
 10
15.239309
 20
26.640090
 30
0.0
  0
LWPOLYLINE
  5
102
100
AcDbEntity
  8
Layer_1
 62
7
100
AcDbPolyline
 90
20
 70
1
 10
9.963082
 20
19.479050
 30
0.0
 10
9.541171
 20
19.445150
 30
0.0
 10
7.681690
 20
18.555380
 30
0.0
 10
7.230360
 20
17.911200
 30
0.0
 10
7.293498
 20
17.308760
 30
0.0
 10
7.398857
 20
17.127370
 30
0.0
 10
8.929368
 20
16.242470
 30
0.0
 10
9.884087
 20
16.101200
 30
0.0
 10
10.290523
 20
16.077700
 30
0.0
 10
10.417086
 20
16.077330
 30
0.0
 10
10.668016
 20
16.094430
 30
0.0
 10
11.121830
 20
16.163830
 30
0.0
 10
11.419183
 20
16.220030
 30
0.0
 10
12.134912
 20
16.480230
 30
0.0
 10
12.778715
 20
16.938150
 30
0.0
 10
13.062408
 20
17.517860
 30
0.0
 10
12.899260
 20
18.092030
 30
0.0
 10
12.082089
 20
18.868510
 30
0.0
 10
11.434848
 20
19.216200
 30
0.0
 10
10.738415
 20
19.425100
 30
0.0
  0
LWPOLYLINE
  5
103
100
AcDbEntity
  8
Layer_1
 62
7
100
AcDbPolyline
 90
18
 70
1
 10
5.721627
 20
18.867820
 30
0.0
 10
3.750675
 20
18.291550
 30
0.0
 10
2.417029
 20
16.727890
 30
0.0
 10
2.107928
 20
15.280200
 30
0.0
 10
2.117388
 20
14.994590
 30
0.0
 10
2.175846
 20
14.945090
 30
0.0
 10
2.478357
 20
14.980990
 30
0.0
 10
2.478454
 20
14.980990
 30
0.0
 10
2.663094
 20
15.053590
 30
0.0
 10
3.085673
 20
15.280070
 30
0.0
 10
3.343863
 20
15.436720
 30
0.0
 10
4.063699
 20
15.937530
 30
0.0
 10
4.462780
 20
16.250550
 30
0.0
 10
5.628693
 20
17.269270
 30
0.0
 10
6.286059
 20
17.957770
 30
0.0
 10
6.471749
 20
18.199150
 30
0.0
 10
6.692877
 20
18.648470
 30
0.0
 10
6.408610
 20
18.798060
 30
0.0
  0
LWPOLYLINE
  5
104
100
AcDbEntity
  8
Layer_1
 62
7
100
AcDbPolyline
 90
21
 70
1
 10
14.345905
 20
18.856520
 30
0.0
 10
13.605819
 20
18.776620
 30
0.0
 10
13.437609
 20
18.727120
 30
0.0
 10
13.643645
 20
18.175500
 30
0.0
 10
13.774029
 20
18.018940
 30
0.0
 10
13.962489
 20
17.807750
 30
0.0
 10
14.170149
 20
17.582030
 30
0.0
 10
15.183612
 20
16.601620
 30
0.0
 10
15.840692
 20
16.071770
 30
0.0
 10
16.155716
 20
15.827050
 30
0.0
 10
16.732368
 20
15.412590
 30
0.0
 10
16.990558
 20
15.247630
 30
0.0
 10
17.420014
 20
15.015420
 30
0.0
 10
17.508564
 20
14.973920
 30
0.0
 10
17.831325
 20
14.865610
 30
0.0
 10
17.970402
 20
14.915710
 30
0.0
 10
17.987782
 20
15.326540
 30
0.0
 10
17.929802
 20
15.929660
 30
0.0
 10
16.693204
 20
18.033280
 30
0.0
 10
16.065067
 20
18.453280
 30
0.0
 10
15.073478
 20
18.799930
 30
0.0
  0
LWPOLYLINE
  5
105
100
AcDbEntity
  8
Layer_1
 62
7
100
AcDbPolyline
 90
25
 70
1
 10
13.576017
 20
15.927510
 30
0.0
 10
13.414589
 20
15.924510
 30
0.0
 10
12.350404
 20
15.671580
 30
0.0
 10
11.781203
 20
15.289880
 30
0.0
 10
11.445833
 20
14.880870
 30
0.0
 10
11.220216
 20
14.506140
 30
0.0
 10
11.005010
 20
13.827670
 30
0.0
 10
10.942350
 20
13.247390
 30
0.0
 10
10.964800
 20
12.924620
 30
0.0
 10
11.098528
 20
12.122640
 30
0.0
 10
11.643181
 20
10.991880
 30
0.0
 10
12.621398
 20
10.007270
 30
0.0
 10
13.367597
 20
9.598730
 30
0.0
 10
14.087528
 20
9.428130
 30
0.0
 10
14.330053
 20
9.397130
 30
0.0
 10
14.682234
 20
9.395130
 30
0.0
 10
15.331672
 20
9.552070
 30
0.0
 10
15.519464
 20
9.631170
 30
0.0
 10
16.070039
 20
9.985550
 30
0.0
 10
16.928665
 20
11.610620
 30
0.0
 10
16.962385
 20
12.142670
 30
0.0
 10
16.920925
 20
12.698310
 30
0.0
 10
16.659774
 20
13.596190
 30
0.0
 10
16.249326
 20
14.341530
 30
0.0
 10
13.938802
 20
15.885410
 30
0.0
  0
LWPOLYLINE
  5
106
100
AcDbEntity
  8
Layer_1
 62
7
100
AcDbPolyline
 90
14
 70
1
 10
6.841595
 20
15.810780
 30
0.0
 10
6.340785
 20
15.775680
 30
0.0
 10
4.446631
 20
14.722390
 30
0.0
 10
3.777707
 20
13.792500
 30
0.0
 10
3.352835
 20
12.048510
 30
0.0
 10
3.454850
 20
11.238020
 30
0.0
 10
5.531161
 20
9.310050
 30
0.0
 10
6.278220
 20
9.278450
 30
0.0
 10
7.217179
 20
9.520870
 30
0.0
 10
8.399807
 20
10.362120
 30
0.0
 10
9.439825
 20
12.385800
 30
0.0
 10
9.502199
 20
13.191030
 30
0.0
 10
9.203414
 20
14.353120
 30
0.0
 10
7.772720
 20
15.655910
 30
0.0
  0
LWPOLYLINE
  5
107
100
AcDbEntity
  8
Layer_1
 62
7
100
AcDbPolyline
 90
16
 70
1
 10
18.208338
 20
14.145590
 30
0.0
 10
18.025704
 20
14.076890
 30
0.0
 10
17.776493
 20
13.347410
 30
0.0
 10
17.734753
 20
12.588410
 30
0.0
 10
17.793593
 20
11.641620
 30
0.0
 10
17.867523
 20
11.132980
 30
0.0
 10
17.912613
 20
10.890360
 30
0.0
 10
18.156474
 20
9.865330
 30
0.0
 10
18.251134
 20
9.583640
 30
0.0
 10
18.475509
 20
9.076440
 30
0.0
 10
18.586026
 20
8.895050
 30
0.0
 10
18.835714
 20
8.618900
 30
0.0
 10
19.072411
 20
8.584300
 30
0.0
 10
19.647632
 20
9.272520
 30
0.0
 10
20.000000
 20
12.119240
 30
0.0
 10
18.695392
 20
13.880050
 30
0.0
  0
LWPOLYLINE
  5
108
100
AcDbEntity
  8
Layer_1
 62
7
100
AcDbPolyline
 90
22
 70
1
 10
1.902370
 20
13.979770
 30
0.0
 10
1.861296
 20
13.976770
 30
0.0
 10
1.528314
 20
13.824800
 30
0.0
 10
0.327155
 20
12.441010
 30
0.0
 10
0.190084
 20
12.096660
 30
0.0
 10
0.000000
 20
11.055060
 30
0.0
 10
0.025217
 20
10.522920
 30
0.0
 10
0.420191
 20
9.321090
 30
0.0
 10
0.892249
 20
8.652740
 30
0.0
 10
1.322374
 20
8.526180
 30
0.0
 10
1.609220
 20
8.818660
 30
0.0
 10
1.686209
 20
8.934430
 30
0.0
 10
1.928638
 20
9.437150
 30
0.0
 10
1.990535
 20
9.623220
 30
0.0
 10
2.239459
 20
10.517860
 30
0.0
 10
2.276807
 20
10.719210
 30
0.0
 10
2.309857
 20
10.875000
 30
0.0
 10
2.350835
 20
11.101960
 30
0.0
 10
2.404708
 20
12.794660
 30
0.0
 10
2.100096
 20
13.829620
 30
0.0
 10
2.060550
 20
13.879620
 30
0.0
 10
1.998176
 20
13.940420
 30
0.0
  0
LWPOLYLINE
  5
109
100
AcDbEntity
  8
Layer_1
 62
7
100
AcDbPolyline
 90
23
 70
1
 10
10.209140
 20
9.779390
 30
0.0
 10
8.148304
 20
9.096330
 30
0.0
 10
7.327217
 20
8.167300
 30
0.0
 10
7.229787
 20
7.991070
 30
0.0
 10
7.100644
 20
7.693710
 30
0.0
 10
6.950201
 20
6.805760
 30
0.0
 10
6.972170
 20
6.359780
 30
0.0
 10
7.170851
 20
5.686750
 30
0.0
 10
8.140566
 20
4.478520
 30
0.0
 10
8.853907
 20
4.090430
 30
0.0
 10
9.689895
 20
3.872350
 30
0.0
 10
10.461981
 20
3.856150
 30
0.0
 10
12.554530
 20
4.851750
 30
0.0
 10
13.198141
 20
5.859000
 30
0.0
 10
13.381634
 20
6.805790
 30
0.0
 10
13.283914
 20
7.598610
 30
0.0
 10
13.039384
 20
8.156920
 30
0.0
 10
12.916451
 20
8.362950
 30
0.0
 10
12.393958
 20
8.959670
 30
0.0
 10
12.187636
 20
9.125300
 30
0.0
 10
11.254886
 20
9.598980
 30
0.0
 10
11.020099
 20
9.661980
 30
0.0
 10
10.678712
 20
9.739980
 30
0.0
  0
LWPOLYLINE
  5
10a
100
AcDbEntity
  8
Layer_1
 62
7
100
AcDbPolyline
 90
20
 70
1
 10
17.441029
 20
8.728380
 30
0.0
 10
17.084454
 20
8.677480
 30
0.0
 10
16.419159
 20
8.423880
 30
0.0
 10
15.992855
 20
8.146970
 30
0.0
 10
15.388502
 20
7.619790
 30
0.0
 10
14.927620
 20
7.103890
 30
0.0
 10
14.278850
 20
6.123860
 30
0.0
 10
14.032696
 20
5.573090
 30
0.0
 10
13.971376
 20
5.408040
 30
0.0
 10
13.751777
 20
4.426950
 30
0.0
 10
13.839557
 20
3.560970
 30
0.0
 10
14.249050
 20
3.013830
 30
0.0
 10
14.648609
 20
2.862630
 30
0.0
 10
15.309127
 20
2.876930
 30
0.0
 10
17.665024
 20
4.074850
 30
0.0
 10
18.658620
 20
6.148480
 30
0.0
 10
18.686420
 20
6.711860
 30
0.0
 10
18.643910
 20
7.328240
 30
0.0
 10
18.387344
 20
8.181230
 30
0.0
 10
17.928180
 20
8.629510
 30
0.0
  0
LWPOLYLINE
  5
10b
100
AcDbEntity
  8
Layer_1
 62
7
100
AcDbPolyline
 90
23
 70
1
 10
2.781628
 20
8.305330
 30
0.0
 10
2.543211
 20
8.276530
 30
0.0
 10
2.177848
 20
8.082140
 30
0.0
 10
2.090066
 20
8.002440
 30
0.0
 10
1.716202
 20
6.742150
 30
0.0
 10
2.182529
 20
4.839970
 30
0.0
 10
3.311858
 20
3.559340
 30
0.0
 10
4.048027
 20
3.142300
 30
0.0
 10
5.167040
 20
2.846280
 30
0.0
 10
5.637666
 20
2.862780
 30
0.0
 10
5.833290
 20
2.926680
 30
0.0
 10
6.269814
 20
3.307230
 30
0.0
 10
6.419781
 20
3.583280
 30
0.0
 10
6.460472
 20
4.568470
 30
0.0
 10
6.379758
 20
4.919890
 30
0.0
 10
6.100553
 20
5.660840
 30
0.0
 10
6.001117
 20
5.855700
 30
0.0
 10
5.316814
 20
6.860470
 30
0.0
 10
5.034840
 20
7.173490
 30
0.0
 10
4.595832
 20
7.587950
 30
0.0
 10
4.454941
 20
7.697790
 30
0.0
 10
4.021377
 20
7.977470
 30
0.0
 10
2.934459
 20
8.301480
 30
0.0
  0
LWPOLYLINE
  5
10c
100
AcDbEntity
  8
Layer_1
 62
7
100
AcDbPolyline
 90
21
 70
1
 10
10.446889
 20
2.968170
 30
0.0
 10
9.775959
 20
2.941470
 30
0.0
 10
9.095190
 20
2.862470
 30
0.0
 10
8.790005
 20
2.807370
 30
0.0
 10
8.172088
 20
2.640020
 30
0.0
 10
7.937110
 20
2.549420
 30
0.0
 10
7.170565
 20
2.010880
 30
0.0
 10
7.117934
 20
1.589350
 30
0.0
 10
8.321672
 20
0.464230
 30
0.0
 10
9.752461
 20
-0.000380
 30
0.0
 10
10.607362
 20
0.005620
 30
0.0
 10
12.874616
 20
1.161880
 30
0.0
 10
13.276085
 20
1.686950
 30
0.0
 10
13.294045
 20
2.037220
 30
0.0
 10
13.149905
 20
2.232370
 30
0.0
 10
12.760376
 20
2.516920
 30
0.0
 10
12.475537
 20
2.623330
 30
0.0
 10
11.755127
 20
2.831760
 30
0.0
 10
11.362064
 20
2.894460
 30
0.0
 10
11.091457
 20
2.924960
 30
0.0
 10
10.804229
 20
2.950260
 30
0.0
  0
ENDSEC
  0
SECTION
  2
OBJECTS
  0
DICTIONARY
  5
C
330
0
100
AcDbDictionary
  3
ACAD_GROUP
350
D
  3
ACAD_MLINESTYLE
350
17
  0
DICTIONARY
  5
D
330
C
100
AcDbDictionary
  0
DICTIONARY
  5
1A
330
C
100
AcDbDictionary
  0
DICTIONARY
  5
17
330
C
100
AcDbDictionary
  3
STANDARD
350
18
  0
DICTIONARY
  5
19
330
C
100
AcDbDictionary
  0
ENDSEC
  0
EOF
